<svg id="Layer_1" data-name="Layer 1" xmlns="http://www.w3.org/2000/svg" viewBox="0 0 107.95 124"><defs><style>.cls-1{fill:#fff;fill-rule:evenodd;}</style></defs><path class="cls-1" d="M73.67,67.66,85,69.9a11.48,11.48,0,1,0,1.16-5.82L74.44,61.76a18.45,18.45,0,0,0-4.82-11.92L85.37,27.6a14.41,14.41,0,1,0-4.84-3.44L65,46.14a18.52,18.52,0,0,0-22.6,3.54L22,33.85a11.53,11.53,0,1,0-3.81,4.55L39.06,54.62A18.5,18.5,0,0,0,43.46,76L30.94,93.72a15.3,15.3,0,1,0,4.54,3.85l13-18.31a18.43,18.43,0,0,0,14.23.31l15.48,22.87A13,13,0,1,0,83,99L67.78,76.55a18.61,18.61,0,0,0,5.89-8.89Zm22.77-4a5.57,5.57,0,1,1-5.58,5.57,5.57,5.57,0,0,1,5.58-5.57ZM91.05,6a8.42,8.42,0,1,1-8.42,8.42A8.42,8.42,0,0,1,91.05,6ZM11.56,34.57A5.58,5.58,0,1,1,17.13,29a5.59,5.59,0,0,1-5.57,5.57Zm12,81.83a9.34,9.34,0,1,1,9.33-9.34,9.34,9.34,0,0,1-9.33,9.34ZM87.9,104A7.08,7.08,0,1,1,80.82,111,7.09,7.09,0,0,1,87.9,104Zm-32-29a12.61,12.61,0,0,1-12.6-12.61h0a12.6,12.6,0,1,1,12.6,12.61Z"/></svg>