<svg id="Layer_1" data-name="Layer 1" xmlns="http://www.w3.org/2000/svg" xmlns:xlink="http://www.w3.org/1999/xlink" viewBox="0 0 150.53 135.82"><defs><style>.cls-1,.cls-2,.cls-3,.cls-4{fill-rule:evenodd;}.cls-1{fill:url(#GradientFill_1);}.cls-2{fill:url(#GradientFill_1-2);}.cls-3{fill:url(#GradientFill_1-3);}.cls-4{fill:url(#GradientFill_1-4);}</style><linearGradient id="GradientFill_1" x1="53.54" y1="66.92" x2="122.54" y2="-1.9" gradientUnits="userSpaceOnUse"><stop offset="0" stop-color="#bd75ae"/><stop offset="0.44" stop-color="#917eb0"/><stop offset="1" stop-color="#1bb1c1"/></linearGradient><linearGradient id="GradientFill_1-2" x1="53.36" y1="67.1" x2="122.91" y2="-2.26" xlink:href="#GradientFill_1"/><linearGradient id="GradientFill_1-3" x1="71.59" y1="103.37" x2="138.98" y2="36.17" xlink:href="#GradientFill_1"/><linearGradient id="GradientFill_1-4" x1="4.18" y1="36.91" x2="71.49" y2="-30.21" xlink:href="#GradientFill_1"/></defs><path class="cls-1" d="M147.74,14.88A20.39,20.39,0,0,0,129.91,4.59H47a2.94,2.94,0,1,0,0,5.88h82.93a14.71,14.71,0,0,1,12.74,22.06L88,127.18a14.71,14.71,0,0,1-25.47,0L7.88,32.53A14.71,14.71,0,0,1,20.53,10.47a2.94,2.94,0,0,0,0-5.88h0A20.58,20.58,0,0,0,2.79,35.47l54.65,94.65a20.58,20.58,0,0,0,35.65,0l54.65-94.65a20.39,20.39,0,0,0,0-20.59Zm0,0" transform="translate(0 -4.59)"/><path class="cls-2" d="M107.59,63.78a2.93,2.93,0,0,0,4-1.08l20.81-36a2.94,2.94,0,0,0-2.55-4.41H20.67a2.94,2.94,0,0,0-2.55,4.41l54.6,94.57a2.94,2.94,0,0,0,5.09,0L98.43,85.53a2.94,2.94,0,1,0-5.09-2.94l-18.08,31.3L25.76,28.14h99L106.51,59.76A2.94,2.94,0,0,0,107.59,63.78Zm0,0" transform="translate(0 -4.59)"/><path class="cls-3" d="M105,70.85a2.94,2.94,0,1,0-.44,3.78A3,3,0,0,0,105,70.85Zm0,0" transform="translate(0 -4.59)"/><path class="cls-4" d="M33.64,10.47a2.94,2.94,0,1,0-2.87-2.34,3,3,0,0,0,2.87,2.34Zm0,0" transform="translate(0 -4.59)"/></svg>