<svg id="Layer_1" data-name="Layer 1" xmlns="http://www.w3.org/2000/svg" viewBox="0 0 150.53 135.82"><defs><style>.cls-1{fill:#fff;fill-rule:evenodd;}</style></defs><path class="cls-1" d="M152,14.88A20.37,20.37,0,0,0,134.15,4.59H51.22a2.94,2.94,0,1,0,0,5.88h82.93a14.71,14.71,0,0,1,12.73,22.06L92.24,127.18a14.72,14.72,0,0,1-25.48,0L12.12,32.53A14.71,14.71,0,0,1,24.76,10.47a2.94,2.94,0,0,0,0-5.88h0A20.59,20.59,0,0,0,7,35.47l54.65,94.65a20.59,20.59,0,0,0,35.66,0L152,35.47a20.39,20.39,0,0,0,0-20.59Zm0,0" transform="translate(-4.24 -4.59)"/><path class="cls-1" d="M111.82,63.78a2.94,2.94,0,0,0,4-1.08l20.8-36a2.94,2.94,0,0,0-2.54-4.41H24.9a2.94,2.94,0,0,0-2.54,4.41L77,121.24a2.94,2.94,0,0,0,5.09,0l20.62-35.71a2.94,2.94,0,1,0-5.09-2.94L79.5,113.89,30,28.14h99L110.75,59.76A2.94,2.94,0,0,0,111.82,63.78Zm0,0" transform="translate(-4.24 -4.59)"/><path class="cls-1" d="M109.24,70.85a2.93,2.93,0,1,0-.43,3.78A2.95,2.95,0,0,0,109.24,70.85Zm0,0" transform="translate(-4.24 -4.59)"/><path class="cls-1" d="M37.88,10.47A2.94,2.94,0,1,0,35,8.13a3,3,0,0,0,2.88,2.34Zm0,0" transform="translate(-4.24 -4.59)"/></svg>