<svg id="Layer_1" data-name="Layer 1" xmlns="http://www.w3.org/2000/svg" viewBox="0 0 214.69 160.27"><defs><style>.cls-1{fill:#fff;fill-rule:evenodd;}</style></defs><path class="cls-1" d="M169.76,29.17a67.16,67.16,0,0,0-46.39.47A67.5,67.5,0,0,0,10.63,31.12,3.79,3.79,0,1,0,17,35.19,59.86,59.86,0,1,1,7.61,65.58,3.79,3.79,0,0,0,0,65.33,67.49,67.49,0,0,0,91.33,130.6,67.48,67.48,0,1,0,169.76,29.17Zm-46.51,76.29a7.91,7.91,0,0,0,1.47.37l10.89,1.62,1.79,10.87a7.41,7.41,0,0,0,6.31,6.22,7.4,7.4,0,0,0,7.87-4.08l4.92-9.86,10.83,1.64a7.54,7.54,0,0,0,6.41-12.83l-7.82-7.67,4.94-9.83a7.54,7.54,0,0,0-10.2-10.07l-9.81,5.08L143,69.21A7.38,7.38,0,0,0,135,67.57a66.27,66.27,0,0,0-1.17-12.68A40.19,40.19,0,1,1,114.4,116a67,67,0,0,0,8.85-10.52ZM128,97.31l10.08-5.23a3.79,3.79,0,0,0,2-4l-2.26-13.38,9.67,9.55a3.79,3.79,0,0,0,4.41.66L164,78.64l-6.11,12.17a3.79,3.79,0,0,0,.73,4.41l9.69,9.5-13.42-2a3.79,3.79,0,0,0-4,2l-6.09,12.2-2.21-13.46a3.8,3.8,0,0,0-3.19-3.13l-12.1-1.79.63-1.25ZM174.77,146a60.1,60.1,0,0,1-76.39-18.48l.16-.08A68.32,68.32,0,0,0,108.65,121,47.77,47.77,0,1,0,132,47.5a68.38,68.38,0,0,0-4.55-11.08l-.09-.15A59.9,59.9,0,0,1,174.77,146Z"/><path class="cls-1" d="M89.47,109.88A47.77,47.77,0,1,0,25.08,89.45a47.82,47.82,0,0,0,64.39,20.43ZM49,31.79A40.19,40.19,0,1,1,31.81,86,40.24,40.24,0,0,1,49,31.79Z"/><path class="cls-1" d="M45,80.53l10.89,1.62L57.68,93A7.41,7.41,0,0,0,64,99.24a7.4,7.4,0,0,0,7.87-4.08l4.92-9.86,10.84,1.64A7.53,7.53,0,0,0,94,74.11L86.2,66.44l4.94-9.83a7.54,7.54,0,0,0-10.2-10.07l-9.81,5.09-7.82-7.72a7.42,7.42,0,0,0-8.76-1.33h0a7.42,7.42,0,0,0-3.95,7.93l1.82,10.81-9.77,5.06A7.53,7.53,0,0,0,45,80.53ZM58.35,66.79a3.81,3.81,0,0,0,2-4L58.09,49.41,67.76,59a3.81,3.81,0,0,0,4.41.67L84.3,53.34,78.19,65.51a3.79,3.79,0,0,0,.73,4.41l9.69,9.5-13.42-2a3.79,3.79,0,0,0-4,2l-6.09,12.2L62.93,78.19a3.8,3.8,0,0,0-3.19-3.14l-13.48-2Z"/><path class="cls-1" d="M8.4,52a3.79,3.79,0,1,0-3.49-6.73A3.75,3.75,0,0,0,3,47.49a3.82,3.82,0,0,0,.25,2.89,3.88,3.88,0,0,0,2.22,1.87A3.82,3.82,0,0,0,8.4,52Z"/></svg>