<svg id="Layer_1" data-name="Layer 1" xmlns="http://www.w3.org/2000/svg" xmlns:xlink="http://www.w3.org/1999/xlink" viewBox="0 0 306 306"><defs><style>.cls-1{fill-rule:evenodd;fill:url(#GradientFill_1);}</style><linearGradient id="GradientFill_1" x1="-401.53" y1="147.01" x2="2083.24" y2="173.87" gradientUnits="userSpaceOnUse"><stop offset="0" stop-color="#bf75ae"/><stop offset="0.54" stop-color="#9778ae"/><stop offset="1" stop-color="#1bb1c1"/></linearGradient></defs><path class="cls-1" d="M306,153A153,153,0,1,0,153,306,153,153,0,0,0,306,153Zm-59.28-43h0a74.11,74.11,0,0,1-18.25,18.92c.07,1.57.1,3.15.1,4.73,0,48.34-36.78,104.06-104,104.06a103.48,103.48,0,0,1-56.06-16.43,73.91,73.91,0,0,0,54.15-15.14,36.62,36.62,0,0,1-34.17-25.4,36.86,36.86,0,0,0,16.52-.63,36.6,36.6,0,0,1-29.34-35.86v-.46a36.42,36.42,0,0,0,16.57,4.58A36.62,36.62,0,0,1,80.87,99.5a103.81,103.81,0,0,0,75.38,38.21,36.6,36.6,0,0,1,62.32-33.36,73.31,73.31,0,0,0,23.23-8.87,36.75,36.75,0,0,1-16.09,20.23A73.28,73.28,0,0,0,246.72,110Z"/></svg>