<svg id="Layer_1" data-name="Layer 1" xmlns="http://www.w3.org/2000/svg" xmlns:xlink="http://www.w3.org/1999/xlink" viewBox="0 0 288 288"><defs><style>.cls-1{fill-rule:evenodd;fill:url(#GradientFill_1);}</style><linearGradient id="GradientFill_1" x1="-833.22" y1="133.44" x2="1509.45" y2="158.76" gradientUnits="userSpaceOnUse"><stop offset="0" stop-color="#bf75ae"/><stop offset="0.54" stop-color="#9778ae"/><stop offset="1" stop-color="#1bb1c1"/></linearGradient></defs><path class="cls-1" d="M144,288A144,144,0,1,0,0,144,144,144,0,0,0,144,288ZM65.89,140.88,204.73,87.35c6.45-2.33,12.07,1.57,10,11.31h0L191.09,210c-1.75,7.9-6.45,9.82-13,6.1l-36-26.53-17.36,16.73c-1.92,1.92-3.54,3.54-7.26,3.54L120,173.22l66.72-60.28c2.91-2.55-.65-4-4.47-1.45L99.8,163.4,64.26,152.32c-7.72-2.45-7.88-7.72,1.63-11.44Z"/></svg>