<svg id="Layer_1" data-name="Layer 1" xmlns="http://www.w3.org/2000/svg" xmlns:xlink="http://www.w3.org/1999/xlink" viewBox="0 0 321 321"><defs><style>.cls-1{fill-rule:evenodd;fill:url(#GradientFill_1);}</style><linearGradient id="GradientFill_1" x1="-1468.93" y1="142.88" x2="1218.29" y2="171.94" gradientUnits="userSpaceOnUse"><stop offset="0" stop-color="#bf75ae"/><stop offset="0.54" stop-color="#9778ae"/><stop offset="1" stop-color="#1bb1c1"/></linearGradient></defs><path class="cls-1" d="M0,154.86c0,28.88,3.44,49.85,14.83,73.57,16.87,35.13,42,60.11,77.32,77.53,14.65,7.22,40.92,15,62.71,15,28.88,0,49.85-3.44,73.57-14.83,35.14-16.87,60.11-41.94,77.53-77.32,7.27-14.76,15-40.75,15-62.71,0-28.77-3.49-49.95-14.83-73.57C289,56.79,263.7,32.2,228.85,15,214,7.72,188.23,0,166.14,0,137.3,0,116.25,3.46,92.57,14.83,56.79,32,32.2,57.3,15,92.15,7.72,107,0,132.77,0,154.86Zm99,44.78c1.42-3.28,8.23-8.95,11.09-11.8s8.72-9.5,11.59-11.07l39,38.61,38.65-38.56c2,1,21.47,20.18,22.61,22.83-3.35,3.22-57.84,59-61.48,60.84-3-1.57-26.68-26.07-31.18-30.57C119.2,219.8,109.26,209.32,99,199.64Zm0-78.27c3.32-3.47,58.27-59.17,61.46-60.88L222,122.37c-5.69,4.11-18.35,19.74-22.65,21.86l-39-38.59-38.67,38.53c-1.93-1-21.37-20.22-22.58-22.8Zm38.53,38.91,23.14-22.7,22.7,23.14-23.13,22.69-22.71-23.13Zm-77.07.22c1.25-2.49,20.14-21.12,22.27-22.63l22.54,22.74L82.6,182.94c-3.06-2.16-8.24-8-11.27-11s-9-8-10.82-11.43Zm155.18-.1,22.52-22.22L260.5,160.5c-1.28,2.41-19.85,20.92-22.28,22.61Z"/></svg>