<svg id="Layer_1" data-name="Layer 1" xmlns="http://www.w3.org/2000/svg" xmlns:xlink="http://www.w3.org/1999/xlink" viewBox="0 0 309 309"><defs><style>.cls-1{fill-rule:evenodd;fill:url(#GradientFill_1);}</style><linearGradient id="GradientFill_1" x1="-1903.31" y1="132.25" x2="672.07" y2="160.09" gradientUnits="userSpaceOnUse"><stop offset="0" stop-color="#bf75ae"/><stop offset="0.54" stop-color="#9778ae"/><stop offset="1" stop-color="#1bb1c1"/></linearGradient></defs><path class="cls-1" d="M154.5,0A154.5,154.5,0,1,1,0,154.5,154.5,154.5,0,0,1,154.5,0ZM64.7,180.55c3.1,4,4.53,22,32.93,35.68,33.19,16,80.45,16.9,113.15.15,30.77-15.76,28.47-29.06,33.52-35.84.79-22.89-10.45-35.74-27-45.87-5-3-11.49-5.14-16.41-8.19,1.69-25.69,18.67-55.95-3.28-64.08a17.89,17.89,0,0,0-24.51,15.5c-1,12.17-.21,29.37-.06,42-5.74.15-12.35-.93-18.52-.93-6.62,0-12.49.76-18.91,1.14,0-12.87.92-29.55-.07-42-.91-11.3-11.51-20-24.27-15.81-13.86,4.61-12.13,18.2-10.13,27.9,2.23,10.75,5.57,25.73,6.62,36.28-4.58,3.4-11.34,5.16-16.06,8.16-16.55,10.54-27.75,22.45-27,45.91Zm121.78-25.26c-12.67,3.62-9.32,33.38,4.22,29.07,5.43-1.73,8.1-9.84,7.53-16.69-.5-6.09-4.77-14.38-11.75-12.38Zm-69.18.24c-13,5.41-7.81,32.88,4.62,28.8s8.29-34.16-4.62-28.8Zm127,30.39c-5.05,6.78-2.75,20.08-33.52,35.84-32.7,16.75-80,15.88-113.15-.15C69.23,207.89,67.8,190,64.7,185.93c1.48,14.68-.41,18.14,7.8,29.43,5,6.89,12.08,12.83,20.46,17.64,16.61,9.54,38.6,14.86,61.54,14.86,29.59,0,65.05-9.57,81.65-32.09C244.77,204.08,242.72,201.28,244.3,185.92Z"/></svg>