<svg id="Layer_1" data-name="Layer 1" xmlns="http://www.w3.org/2000/svg" viewBox="0 0 273.5 273.5"><defs><style>.cls-1{fill:#fff;fill-rule:evenodd;}</style></defs><path class="cls-1" d="M136.75,0A136.75,136.75,0,1,1,0,136.75,136.74,136.74,0,0,1,136.75,0Zm11,78.78C34.93,66.1,52.29,193.7,114.83,191.5c0,0,19.32.24,44.23.24,52.69,0,65.9-79.27,23.41-103.3-11.89-6.73-23.8-8-34.88-9.61l.19,0Zm-67.7-5.24.07-.14c-.51.65-1,1.32-1.46,2l0,0h0c-6,8.7-8.76,20.38-10.16,32.19-3.07-2.54-11.11,7.2-11,23.29s6.78,19.27,9.32,21.38c1.76,1.48,3.12,6.81,4.06,12.76h.2a34.64,34.64,0,0,1,1.29,7.77c0,1.7,0,3.6-.11,5.49l-.3.1c-.35,3.41-1.47,5.2-2,8.8,4.17,1.53,10.09,3.15,14.6,2.24l5.82-1.16s6.75,4.65,4,12.1c-1.89,5-9.89,5.07-14.84,4.56a4,4,0,0,1,.45.69c1.27,2.55,28,16.94,57.59,16.1,25.45-.73,47-10.66,56.33-16.68-4.94.36-11.77-.06-13.5-4.67-2.79-7.45,4-12.1,4-12.1l5.82,1.16c4,.81,9.14-.39,13.15-1.74-.11-1.95-.31-5.65-.44-9.4-.06-1.89-.1-3.79-.1-5.49a34.56,34.56,0,0,1,1.28-7.77,136.33,136.33,0,0,1,4.22-13c2.54-1.69,10.17-10,7.83-27.52s-11.43-16.94-11.43-16.94c-.48-12.42-7.08-25.33-15.58-35.3l-.07-.13-1-1.07h0a85.49,85.49,0,0,0-24.79-18.57v0a63.39,63.39,0,0,0-28.55-4.81c-21.6,1.1-42,9.76-54.61,25.78Zm12.63,115c2.61.2,4.69,4.11,4.69,8.9s-2.08,8.71-4.69,8.91H93c3.33,0,6-4,6-8.92s-2.69-8.91-6-8.91Zm89.84,0h-.26c-3.32,0-6,4-6,8.91s2.7,8.92,6,8.92h.26c-2.61-.2-4.69-4.11-4.69-8.91s2.08-8.7,4.69-8.9ZM78.13,204.2c3.65.55,12.54,1.35,14.41-3.63,2.37-6.31-3.35-10.25-3.35-10.25l-4.93,1c-4.23.84-9.92-.92-13.44-2.32-.58-.22-1.1-.44-1.55-.64-3.15-1.38-3-3.75-2.76-5.91.18-2,4-3.27,4.8-3.51.06-1.9.1-3.8.1-5.49a34.08,34.08,0,0,0-1.29-7.77c-2.09-.13-6.49.32-12.09,4.93-7.89,6.51-6.7,17-2,24.06s20.51,9.27,20.51,9.27.59.13,1.56.28ZM111,88c-13.86,2.89-21.93,9.33-21.93,9.33C59,125.11,76,187.12,117.64,185.66c0,0,17.17.22,39.32.22,47.67,0,55.79-69.37,24.45-90-14.18-9.34-28.46-9.67-40.56-10.12S111,88,111,88ZM158,188.38c50,0,58.58-72.83,25.67-94.5-14.89-9.8-29.88-10.15-42.59-10.62s-31.29,2.33-31.29,2.33c-14.56,3-23,9.81-23,9.81-31.63,29.18-13.73,94.28,30,92.75,0,0,18,.23,41.29.23ZM112.48,90.2c-13.21,2.76-20.9,8.9-20.9,8.9-28.7,26.49-12.45,85.57,27.19,84.18,0,0,16.36.21,37.46.21,45.43,0,53.17-66.1,23.3-85.77-13.5-8.89-27.11-9.21-38.65-9.63s-28.4,2.11-28.4,2.11Zm62.94,9.73c.31,21.33.15,53.09-2.73,73.13a34,34,0,0,0,6.58-5.2c2.12-19,2.33-45.35,2.11-64.71a31.33,31.33,0,0,0-5.93-5.09l0,0c0,.63,0,1.27,0,1.91Zm-72.18,74.92C98.42,155.18,95.51,121.9,94,99.93l-.06-1.05c-.42.3-.63.47-.63.47l-.62.58c-.67.64-1.3,1.31-1.92,2,1.48,21.14,4.21,51.52,8.58,70.78a32.64,32.64,0,0,0,3.89,2.15Zm-13.8-48a1.36,1.36,0,1,0,1.36,1.37,1.36,1.36,0,0,0-1.36-1.37Zm-7.27,6.12a.74.74,0,1,0,.74.74.74.74,0,0,0-.74-.74Zm6.06,16.17a1.48,1.48,0,1,0,1.49,1.48,1.48,1.48,0,0,0-1.49-1.48Zm99.88-22.4a1.49,1.49,0,1,0,1.48,1.49,1.48,1.48,0,0,0-1.48-1.49Zm-.69,24.56a.6.6,0,0,0,0,1.2.6.6,0,0,0,0-1.2Zm-45.8,22.46a.6.6,0,1,0,.6.6.6.6,0,0,0-.6-.6Zm-15.75-12.25a.72.72,0,1,0,.72.72.72.72,0,0,0-.72-.72Zm15.25-4.13a1.44,1.44,0,1,0,1.44,1.44,1.45,1.45,0,0,0-1.44-1.44Zm5.07-41a.52.52,0,0,0-.51.52.51.51,0,0,0,1,0,.52.52,0,0,0-.51-.52Zm-32,10a.52.52,0,1,0,.52.52.51.51,0,0,0-.52-.52Zm4.15,18.46a1.53,1.53,0,1,0,1.53,1.53,1.54,1.54,0,0,0-1.53-1.53ZM142.86,133a.85.85,0,0,0-.84.84.84.84,0,0,0,.84.83.83.83,0,0,0,.83-.83.84.84,0,0,0-.83-.84ZM134.38,99.3a1.58,1.58,0,1,0,0,3.15,1.58,1.58,0,0,0,0-3.15Zm-12,12.43a1.18,1.18,0,1,0,0,2.36,1.18,1.18,0,1,0,0-2.36ZM97.51,99.93c1.54,22.55,4.56,57,9.61,76.46a32.45,32.45,0,0,0,7.41,1.47c-5.28-19.13-8.43-54.81-10-77.93-.16-2.24-.29-4.36-.42-6.33a50.82,50.82,0,0,0-6.81,3.18q.09,1.53.21,3.15Zm53.05,0c.33,23.24.12,58.85-3.57,78.21h6.7a37.18,37.18,0,0,0,13.88-2.54c3.26-19.8,3.44-53.42,3.12-75.68,0-1.63-.05-3.19-.07-4.68a56.25,56.25,0,0,0-20.25-5.56c.07,3,.14,6.46.19,10.24ZM197.12,204.2c1-.15,1.57-.28,1.57-.28s15.78-2.17,20.51-9.27,5.91-17.55-2-24.06c-5.6-4.61-10-5.06-12.1-4.93a34.64,34.64,0,0,0-1.29,7.77c0,1.69,0,3.59.11,5.49.77.24,4.62,1.55,4.8,3.51.19,2.16.39,4.53-2.77,5.91-.44.2-1,.42-1.55.64-3.52,1.4-9.2,3.16-13.43,2.32l-4.93-1s-5.72,3.94-3.35,10.25C184.58,205.55,193.47,204.75,197.12,204.2Z"/><path class="cls-1" d="M136.75,0A136.75,136.75,0,1,1,0,136.75,136.74,136.74,0,0,1,136.75,0Zm11,78.78C34.93,66.1,52.29,193.7,114.83,191.5c0,0,19.32.24,44.23.24,52.69,0,65.9-79.27,23.41-103.3-11.89-6.73-23.8-8-34.88-9.61l.19,0Zm-67.7-5.24.07-.14c-.51.65-1,1.32-1.46,2l0,0h0c-6,8.7-8.76,20.38-10.16,32.19-3.07-2.54-11.11,7.2-11,23.29s6.78,19.27,9.32,21.38c1.76,1.48,3.12,6.81,4.06,12.76h.2a34.64,34.64,0,0,1,1.29,7.77c0,1.7,0,3.6-.11,5.49l-.3.1c-.35,3.41-1.47,5.2-2,8.8,4.17,1.53,10.09,3.15,14.6,2.24l5.82-1.16s6.75,4.65,4,12.1c-1.89,5-9.89,5.07-14.84,4.56a4,4,0,0,1,.45.69c1.27,2.55,28,16.94,57.59,16.1,25.45-.73,47-10.66,56.33-16.68-4.94.36-11.77-.06-13.5-4.67-2.79-7.45,4-12.1,4-12.1l5.82,1.16c4,.81,9.14-.39,13.15-1.74-.11-1.95-.31-5.65-.44-9.4-.06-1.89-.1-3.79-.1-5.49a34.56,34.56,0,0,1,1.28-7.77,136.33,136.33,0,0,1,4.22-13c2.54-1.69,10.17-10,7.83-27.52s-11.43-16.94-11.43-16.94c-.48-12.42-7.08-25.33-15.58-35.3l-.07-.13-1-1.07h0a85.49,85.49,0,0,0-24.79-18.57v0a63.39,63.39,0,0,0-28.55-4.81c-21.6,1.1-42,9.76-54.61,25.78Zm12.63,115c2.61.2,4.69,4.11,4.69,8.9s-2.08,8.71-4.69,8.91H93c3.33,0,6-4,6-8.92s-2.69-8.91-6-8.91Zm89.84,0h-.26c-3.32,0-6,4-6,8.91s2.7,8.92,6,8.92h.26c-2.61-.2-4.69-4.11-4.69-8.91s2.08-8.7,4.69-8.9ZM78.13,204.2c3.65.55,12.54,1.35,14.41-3.63,2.37-6.31-3.35-10.25-3.35-10.25l-4.93,1c-4.23.84-9.92-.92-13.44-2.32-.58-.22-1.1-.44-1.55-.64-3.15-1.38-3-3.75-2.76-5.91.18-2,4-3.27,4.8-3.51.06-1.9.1-3.8.1-5.49a34.08,34.08,0,0,0-1.29-7.77c-2.09-.13-6.49.32-12.09,4.93-7.89,6.51-6.7,17-2,24.06s20.51,9.27,20.51,9.27.59.13,1.56.28ZM111,88c-13.86,2.89-21.93,9.33-21.93,9.33C59,125.11,76,187.12,117.64,185.66c0,0,17.17.22,39.32.22,47.67,0,55.79-69.37,24.45-90-14.18-9.34-28.46-9.67-40.56-10.12S111,88,111,88ZM158,188.38c50,0,58.58-72.83,25.67-94.5-14.89-9.8-29.88-10.15-42.59-10.62s-31.29,2.33-31.29,2.33c-14.56,3-23,9.81-23,9.81-31.63,29.18-13.73,94.28,30,92.75,0,0,18,.23,41.29.23ZM112.48,90.2c-13.21,2.76-20.9,8.9-20.9,8.9-28.7,26.49-12.45,85.57,27.19,84.18,0,0,16.36.21,37.46.21,45.43,0,53.17-66.1,23.3-85.77-13.5-8.89-27.11-9.21-38.65-9.63s-28.4,2.11-28.4,2.11Zm62.94,9.73c.31,21.33.15,53.09-2.73,73.13a34,34,0,0,0,6.58-5.2c2.12-19,2.33-45.35,2.11-64.71a31.33,31.33,0,0,0-5.93-5.09l0,0c0,.63,0,1.27,0,1.91Zm-72.18,74.92C98.42,155.18,95.51,121.9,94,99.93l-.06-1.05c-.42.3-.63.47-.63.47l-.62.58c-.67.64-1.3,1.31-1.92,2,1.48,21.14,4.21,51.52,8.58,70.78a32.64,32.64,0,0,0,3.89,2.15Zm-13.8-48a1.36,1.36,0,1,0,1.36,1.37,1.36,1.36,0,0,0-1.36-1.37Zm-7.27,6.12a.74.74,0,1,0,.74.74.74.74,0,0,0-.74-.74Zm6.06,16.17a1.48,1.48,0,1,0,1.49,1.48,1.48,1.48,0,0,0-1.49-1.48Zm99.88-22.4a1.49,1.49,0,1,0,1.48,1.49,1.48,1.48,0,0,0-1.48-1.49Zm-.69,24.56a.6.6,0,0,0,0,1.2.6.6,0,0,0,0-1.2Zm-45.8,22.46a.6.6,0,1,0,.6.6.6.6,0,0,0-.6-.6Zm-15.75-12.25a.72.72,0,1,0,.72.72.72.72,0,0,0-.72-.72Zm15.25-4.13a1.44,1.44,0,1,0,1.44,1.44,1.45,1.45,0,0,0-1.44-1.44Zm5.07-41a.52.52,0,0,0-.51.52.51.51,0,0,0,1,0,.52.52,0,0,0-.51-.52Zm-32,10a.52.52,0,1,0,.52.52.51.51,0,0,0-.52-.52Zm4.15,18.46a1.53,1.53,0,1,0,1.53,1.53,1.54,1.54,0,0,0-1.53-1.53ZM142.86,133a.85.85,0,0,0-.84.84.84.84,0,0,0,.84.83.83.83,0,0,0,.83-.83.84.84,0,0,0-.83-.84ZM134.38,99.3a1.58,1.58,0,1,0,0,3.15,1.58,1.58,0,0,0,0-3.15Zm-12,12.43a1.18,1.18,0,1,0,0,2.36,1.18,1.18,0,1,0,0-2.36ZM97.51,99.93c1.54,22.55,4.56,57,9.61,76.46a32.45,32.45,0,0,0,7.41,1.47c-5.28-19.13-8.43-54.81-10-77.93-.16-2.24-.29-4.36-.42-6.33a50.82,50.82,0,0,0-6.81,3.18q.09,1.53.21,3.15Zm53.05,0c.33,23.24.12,58.85-3.57,78.21h6.7a37.18,37.18,0,0,0,13.88-2.54c3.26-19.8,3.44-53.42,3.12-75.68,0-1.63-.05-3.19-.07-4.68a56.25,56.25,0,0,0-20.25-5.56c.07,3,.14,6.46.19,10.24ZM197.12,204.2c1-.15,1.57-.28,1.57-.28s15.78-2.17,20.51-9.27,5.91-17.55-2-24.06c-5.6-4.61-10-5.06-12.1-4.93a34.64,34.64,0,0,0-1.29,7.77c0,1.69,0,3.59.11,5.49.77.24,4.62,1.55,4.8,3.51.19,2.16.39,4.53-2.77,5.91-.44.2-1,.42-1.55.64-3.52,1.4-9.2,3.16-13.43,2.32l-4.93-1s-5.72,3.94-3.35,10.25C184.58,205.55,193.47,204.75,197.12,204.2Z"/></svg>