<svg id="Layer_1" data-name="Layer 1" xmlns="http://www.w3.org/2000/svg" viewBox="0 0 283.5 283.5"><defs><style>.cls-1{fill:#fff;fill-rule:evenodd;}</style></defs><path class="cls-1" d="M141.75,283.5A141.75,141.75,0,1,0,0,141.75,141.72,141.72,0,0,0,141.75,283.5ZM64.86,138.68,201.53,86c6.35-2.29,11.89,1.55,9.83,11.14h0L188.1,206.74c-1.72,7.78-6.34,9.67-12.8,6l-35.44-26.11-17.09,16.46c-1.89,1.89-3.49,3.49-7.15,3.49l2.52-36.07,65.68-59.33c2.85-2.52-.64-3.93-4.41-1.43l-81.16,51.1-35-10.91c-7.6-2.41-7.76-7.6,1.6-11.26Z"/><path class="cls-1" d="M141.75,283.5A141.75,141.75,0,1,0,0,141.75,141.72,141.72,0,0,0,141.75,283.5ZM64.86,138.68,201.53,86c6.35-2.29,11.89,1.55,9.83,11.14h0L188.1,206.74c-1.72,7.78-6.34,9.67-12.8,6l-35.44-26.11-17.09,16.46c-1.89,1.89-3.49,3.49-7.15,3.49l2.52-36.07,65.68-59.33c2.85-2.52-.64-3.93-4.41-1.43l-81.16,51.1-35-10.91c-7.6-2.41-7.76-7.6,1.6-11.26Z"/></svg>