<svg id="Layer_1" data-name="Layer 1" xmlns="http://www.w3.org/2000/svg" viewBox="0 0 299 299"><defs><style>.cls-1{fill:#fff;fill-rule:evenodd;}</style></defs><path class="cls-1" d="M149.5,0A149.5,149.5,0,1,1,0,149.5,149.51,149.51,0,0,1,149.5,0ZM149,195.46c-5.62-.74-2.31-1.57-5.48-2.36-6.58-1.66-2,5.67-4.66,7.32-2.1,1.3-2.53-.3-5.26.32l-2.2,3.86c1.35,1.66,2.44,2.18,3,4.67-3.62,4-5.27-.93-4.92,7.36l5.11,2.42c-1.88,5.68-4.78,1.52-1.52,8.73,3.14,1,3.44-1.07,5.81.35,2.65,1.56.72.28,1,2.68,0,.2,0,.49,0,.69s0,.5,0,.71c1,7.38,5.49,1.59,8.69,1.08l2.53,5,4.42-.05,1.94-5.13c6.11.83,2.72,4,7.25,2.44,4.29-1.44,1.64-3.45,2.32-7.8l5.94.43,1.94-3.29c-1.52-4.09-1.61-.59-2.75-5.53.15-.18.47-.62.56-.45l2.49-1.54c1.48-1.06,1.62,1.06,2.08-2.71.55-4.55-1.92-2.26-5.09-5.41l3.23-5.62L173,200.41l-5.8.55c-1.1-4.78,2-6.42-2.51-7.93-4.77-1.61-1.28,1.49-7.06,2.35-2.11-4.41.22-5.13-5.38-5.13-3.06,1.18-1.87,2.35-3.28,5.21Zm2.31,9.76c-12.46,3.19-7.69,20.61,4.06,18.12,12.6-2.66,7.34-21.06-4.06-18.12ZM189.06,156l-6.47,6.31c2.92,10.85,6.24,12.29-7.07,16.85L175.3,189c12.11,3.68,11.29,5.63,7.3,16.63l6.28,6.73c10.38-3.08,13.33-6.23,16.84,7l9.92.11c3.51-13.09,6.33-10.36,16.63-7.28L239,205.8c-4-11-5.2-13.3,7-16.8l0-9.85c-13.52-4.38-10-6.2-7.25-16.76l-6.36-6.45c-10.61,3.71-13,4.64-16.87-7.1l-9.62-.08c-3.8,12-6.33,10.74-16.8,7.26Zm16.87,16.37c-3.69,1.72-5,2.31-6.68,5.71-5.14,10.46,4.31,22.37,16.15,18,15.93-5.87,6.17-30.93-9.47-23.71ZM78.73,74.26,66.25,86.81c6.46,15.63,12.51,23.66-13.24,31.33l.06,18.26c7.28,2.32,13.88,4,17.13,9.68,5,8.65-1.85,14.81-3.73,21.82,2.14,3.39,9.15,10.22,12.33,12.54,6.19-2.33,13.68-8.35,21.68-4,8.23,4.53,6.67,14.53,11.35,17.27h16.88c1.76-7.1,4.36-14.57,9.94-17.4,8.47-4.31,15.07,2,21.71,4.13l12.33-12.43c-2.13-6.55-8-12.79-4.38-20.84,3.49-7.74,9.16-7.31,17.48-11.06l.2-17.61c-7.29-3.76-14.2-3.57-17.64-10.85-4.06-8.6,2.9-14.67,4.33-21.92l-11.92-11.6c-7,1.69-13.25,8.38-21.8,4.12-8.06-4-6-10.46-10.9-17.53-26.78,0-12.93-1.95-22.77,13.26-7.6,11.73-22.43,1.38-26.56.24Zm37.13,29.08c-32.59,5.53-23.8,54.13,8.6,47.75C154.57,145.16,147.16,98,115.86,103.34Z"/></svg>