<svg id="Layer_1" data-name="Layer 1" xmlns="http://www.w3.org/2000/svg" viewBox="0 0 243.5 243.5"><defs><style>.cls-1{fill:#fff;fill-rule:evenodd;}</style></defs><path class="cls-1" d="M121.75,0A121.75,121.75,0,1,1,0,121.75,121.75,121.75,0,0,1,121.75,0Zm24.43,93.06H113.49a5.22,5.22,0,1,0,0,10.44h32.69a5.22,5.22,0,0,0,0-10.44Zm12.52,25.22H113.49a5.21,5.21,0,1,0,0,10.42H158.7a5.21,5.21,0,1,0,0-10.42Zm-12.52,23.64H113.49a5.22,5.22,0,1,0,0,10.43h32.69a5.22,5.22,0,0,0,0-10.43Zm36.16-81.54H90a5.21,5.21,0,0,0-5.21,5.21V114.8H75.59a19.67,19.67,0,0,0-19.65,19.64v29a19.68,19.68,0,0,0,19.65,19.65,18.9,18.9,0,0,0,2.62-.18h86.05a23.32,23.32,0,0,0,23.3-23.29V65.59a5.22,5.22,0,0,0-5.22-5.21ZM84.81,163.48h0V125.23H75.59a9.23,9.23,0,0,0-9.21,9.22v29a9.22,9.22,0,0,0,9.21,9.21v-.17h1.79a9.23,9.23,0,0,0,7.43-9Zm92.31-3.82V70.81H95.23v92.67a19.51,19.51,0,0,1-2.2,9h71.23A13,13,0,0,0,177.12,159.66Z"/></svg>