<?xml version="1.0" encoding="utf-8"?>
<!-- Generator: Adobe Illustrator 25.0.0, SVG Export Plug-In . SVG Version: 6.00 Build 0)  -->
<svg version="1.1" id="Capa_1" xmlns="http://www.w3.org/2000/svg" xmlns:xlink="http://www.w3.org/1999/xlink" x="0px" y="0px"
	 viewBox="0 0 512 512" style="enable-background:new 0 0 512 512;" xml:space="preserve">
<style type="text/css">
	.st0{fill:#BC7CB2;}
</style>
<g>
	<g>
		<path class="st0" d="M42.3,4.5l8.3,23.2c0.4,1,1.1,1.8,1.9,2.2l20.7,9.3c2.9,1.3,2.9,6,0,7.3l-20.7,9.3c-0.9,0.4-1.6,1.2-1.9,2.2
			l-8.3,23.2c-1.2,3.3-5.3,3.3-6.5,0L27.6,58c-0.4-1-1.1-1.8-1.9-2.2L5,46.6c-2.9-1.3-2.9-6,0-7.3L25.7,30c0.9-0.4,1.6-1.2,1.9-2.2
			l8.3-23.2C37,1.3,41.2,1.3,42.3,4.5z"/>
		<path class="st0" d="M455.8,2l6.1,17.2c0.3,0.7,0.8,1.3,1.4,1.6l15.3,6.9c2.2,1,2.2,4.4,0,5.4L463.3,40c-0.7,0.3-1.2,0.9-1.4,1.6
			l-6.1,17.2c-0.9,2.4-3.9,2.4-4.8,0l-6.1-17.2c-0.3-0.7-0.8-1.3-1.4-1.6l-15.3-6.9c-2.2-1-2.2-4.4,0-5.4l15.3-6.9
			c0.7-0.3,1.2-0.9,1.4-1.6L451,1.9C451.8-0.5,454.9-0.5,455.8,2z"/>
		
			<ellipse transform="matrix(0.9238 -0.3829 0.3829 0.9238 -155.7075 51.0098)" class="st0" cx="50.3" cy="416.7" rx="18.1" ry="18.1"/>
		<circle class="st0" cx="479.9" cy="86" r="7.8"/>
	</g>
	<g>
		<path class="st0" d="M277.4,366.1h-42.8c-69.8,0-126.6-56.8-126.6-126.6v-7.6c0-69.8,56.8-126.6,126.6-126.6h42.8
			c69.8,0,126.6,56.8,126.6,126.6v7.6C404,309.3,347.2,366.1,277.4,366.1L277.4,366.1z M234.6,125.4c-58.7,0-106.5,47.8-106.5,106.5
			v7.6c0,58.7,47.8,106.5,106.5,106.5h42.8c58.7,0,106.5-47.8,106.5-106.5v-7.6c0-58.7-47.8-106.5-106.5-106.5H234.6z"/>
		<path class="st0" d="M272.5,323.3C272.4,323.3,272.4,323.3,272.5,323.3c-3.4,0-6.1-2.7-6.1-6c0-3.3,2.7-6,6-6h0h0
			c9.3,0,18.7-1.8,27.3-5.3c3.1-1.2,6.6,0.3,7.8,3.4c1.2,3.1-0.3,6.6-3.4,7.8C294.2,321.2,283.3,323.3,272.5,323.3L272.5,323.3z"/>
		<path class="st0" d="M325.8,302.7c-1.6,0-3.3-0.7-4.4-2c-2.3-2.5-2.1-6.3,0.4-8.5c3.6-3.3,6.9-7,9.8-11
			c10.3-14.2,15.5-31.3,14.4-48.3c-0.2-3.3,2.3-6.2,5.7-6.4c3.3-0.2,6.2,2.3,6.4,5.7c1.2,19.8-4.8,39.7-16.7,56.1
			c-3.4,4.6-7.2,8.9-11.4,12.8C328.7,302.2,327.2,302.7,325.8,302.7L325.8,302.7z"/>
		<path class="st0" d="M474.9,173.7H468C444.1,97.4,372.7,41.9,288.7,41.9h-65.3C139.3,41.9,67.9,97.4,44,173.7h-6.9
			C16.6,173.7,0,190.3,0,210.8v49.8c0,20.4,16.6,37.1,37.1,37.1H44c13.5,43.1,42.2,79.5,79.7,103.1c-2.8,4-4.4,8.8-4.4,14
			c0,6.5,2.5,12.3,6.6,16.7c-3,11.2-4.6,22.9-4.6,35v33.7c0,5.6,4.5,10.1,10.1,10.1c5.6,0,10.1-4.5,10.1-10.1v-33.7
			c0-9.4,1.1-18.5,3.3-27.2h26.9c-3.1,9-4.8,18.7-4.8,28.7V504c0,3.3,2.7,6,6,6c3.3,0,6-2.7,6-6v-36.1c0-10.2,2-19.8,5.6-28.7H250
			v10h-11c-9.6,0-17.4,7.8-17.4,17.4v11.3c0,9.6,7.8,17.4,17.4,17.4h11v10.5c0,3.3,2.7,6,6,6s6-2.7,6-6v-10.5h11
			c9.6,0,17.4-7.8,17.4-17.4v-11.3c0-9.6-7.8-17.4-17.4-17.4h-11v-10h65.6c3.6,8.9,5.6,18.6,5.6,28.7V504c0,3.3,2.7,6,6,6
			c3.3,0,6-2.7,6-6v-36.1c0-10-1.7-19.7-4.8-28.7h21.7c1.7,0,3.4-0.2,5-0.5c2.2,8.9,3.4,18.2,3.4,27.8v33.7
			c0,5.6,4.5,10.1,10.1,10.1s10.1-4.5,10.1-10.1v-33.7c0-14.4-2.3-28.3-6.5-41.3c1.5-3.2,2.3-6.7,2.3-10.4c0-4.1-1-7.9-2.8-11.3
			c39.7-23.4,70.1-61,84.1-105.8h6.9c20.4,0,37.1-16.6,37.1-37.1v-49.8C512,190.3,495.4,173.7,474.9,173.7L474.9,173.7z
			 M278.3,466.6v11.3c0,2.9-2.4,5.3-5.3,5.3h-34c-2.9,0-5.3-2.4-5.3-5.3v-11.3c0-2.9,2.4-5.3,5.3-5.3h34
			C275.9,461.3,278.3,463.7,278.3,466.6z M37.1,277.6c-9.3,0-16.9-7.6-16.9-16.9v-49.8c0-9.3,7.6-16.9,16.9-16.9h1.8
			c-2.3,11.7-3.5,23.7-3.5,36.1v11.6c0,12.3,1.2,24.4,3.5,36.1H37.1z M143.6,427.1c-6.8,0-12.4-5.5-12.4-12.4s5.5-12.4,12.4-12.4
			h218.6c6.8,0,12.4,5.5,12.4,12.4s-5.5,12.4-12.4,12.4H143.6z M456.5,241.5c0,64.8-36.9,121.1-90.7,149c-1.2-0.2-2.3-0.3-3.5-0.3
			H145.8c-53.6-28.1-90.3-84.2-90.3-148.8v-11.6c0-92.5,75.3-167.8,167.8-167.8h65.3c92.5,0,167.8,75.3,167.8,167.8L456.5,241.5z
			 M491.9,260.6c0,9.3-7.6,16.9-16.9,16.9h-1.8c2.3-11.7,3.5-23.7,3.5-36.1v-11.6c0-12.3-1.2-24.4-3.5-36.1h1.8
			c9.3,0,16.9,7.6,16.9,16.9L491.9,260.6L491.9,260.6z"/>
		<path class="st0" d="M203.3,171.5c-3.7,0-7.2-2-9-5.6c-2.5-5-0.5-11,4.5-13.5c2.5-1.2,5-2.3,7.6-3.3c5.2-1.9,11,0.7,12.9,5.9
			s-0.7,11-5.9,12.9c-1.9,0.7-3.8,1.5-5.6,2.4C206.3,171.2,204.8,171.5,203.3,171.5L203.3,171.5z"/>
		<path class="st0" d="M160.4,243.1c-0.1,0-0.2,0-0.3,0c-5.6-0.1-9.9-4.8-9.8-10.3c0.5-19.9,7.3-39.6,19.1-55.4
			c3.3-4.5,9.6-5.4,14.1-2.1c4.5,3.3,5.4,9.6,2.1,14.1c-9.3,12.6-14.7,28.2-15.2,44C170.3,238.8,165.9,243.1,160.4,243.1
			L160.4,243.1z"/>
	</g>
</g>
</svg>
