<?xml version="1.0" encoding="utf-8"?>
<!-- Generator: Adobe Illustrator 25.0.0, SVG Export Plug-In . SVG Version: 6.00 Build 0)  -->
<svg version="1.1" id="Capa_1" xmlns="http://www.w3.org/2000/svg" xmlns:xlink="http://www.w3.org/1999/xlink" x="0px" y="0px"
	 viewBox="0 0 320.5 320.5" style="enable-background:new 0 0 320.5 320.5;" xml:space="preserve">
<style type="text/css">
	.st0{fill:#B57CB1;}
</style>
<g>
	<path class="st0" d="M149.4,119.2V63.6c13-3.3,22.6-15.2,22.6-29.2c0-16.6-13.5-30.1-30.1-30.1c-16.6,0-30.1,13.5-30.1,30.1
		c0,14,9.6,25.9,22.6,29.2v55.6c-15.8,2.4-29.2,12.1-36.6,25.6l-33-25.6c0.8-2.3,1.2-4.7,1.2-7.3c0-12-9.8-21.7-21.7-21.7
		s-21.7,9.8-21.7,21.7s9.8,21.7,21.7,21.7c4,0,7.7-1.1,10.9-2.9l37.3,29c-0.6,3-0.9,6-0.9,9.2c0,11.1,3.7,21.4,9.8,29.8l-42.2,42.2
		c-2.9,2.9-2.9,7.7,0,10.6c1.5,1.5,3.4,2.2,5.3,2.2s3.8-0.7,5.3-2.2l42.2-42.2c6.4,4.8,14,8,22.3,9.3v55.7
		c-8.3,3.1-14.2,11.1-14.2,20.4c0,12,9.8,21.7,21.7,21.7s21.7-9.8,21.7-21.7c0-9.4-5.9-17.4-14.2-20.4v-55.7
		c24.1-3.6,42.7-24.5,42.7-49.6C192.1,143.7,173.6,122.8,149.4,119.2z M44.4,118.6c-3.7,0-6.7-3-6.7-6.7s3-6.7,6.7-6.7
		s6.7,3,6.7,6.7S48.1,118.6,44.4,118.6z M126.8,34.4c0-8.4,6.8-15.1,15.1-15.1s15.1,6.8,15.1,15.1s-6.8,15.1-15.1,15.1
		S126.8,42.7,126.8,34.4z M141.9,301.3c-3.7,0-6.7-3-6.7-6.7c0-3.3,2.3-6,5.4-6.6c0.4,0.1,0.9,0.1,1.4,0.1s0.9,0,1.4-0.1
		c3.1,0.6,5.4,3.4,5.4,6.6C148.7,298.3,145.7,301.3,141.9,301.3z M141.9,204c-19.4,0-35.2-15.8-35.2-35.2c0-3.4,0.5-6.7,1.4-9.9
		c0-0.2,0.1-0.3,0.1-0.5c4.4-14.4,17.8-24.9,33.6-24.9c19.4,0,35.2,15.8,35.2,35.2C177.1,188.2,161.3,204,141.9,204z"/>
	<path class="st0" d="M290.4,96c-16.6,0-30.1,13.5-30.1,30.1c0,0.8,0,1.5,0.1,2.3l-54.2,18.5c-3.9,1.3-6,5.6-4.7,9.5
		c1.1,3.1,4,5.1,7.1,5.1c0.8,0,1.6-0.1,2.4-0.4l54.2-18.5c5.4,8.2,14.7,13.6,25.2,13.6c16.6,0,30.1-13.5,30.1-30.1
		C320.5,109.5,307,96,290.4,96z M290.4,141.2c-8.4,0-15.1-6.8-15.1-15.1S282,111,290.4,111s15.1,6.8,15.1,15.1
		C305.5,134.5,298.7,141.2,290.4,141.2z"/>
	<path class="st0" d="M30.1,250.4C13.5,250.4,0,264,0,280.6c0,16.6,13.5,30.1,30.1,30.1c16.6,0,30.1-13.5,30.1-30.1
		C60.3,264,46.8,250.4,30.1,250.4z M30.1,295.7c-8.4,0-15.1-6.8-15.1-15.1s6.8-15.1,15.1-15.1s15.1,6.8,15.1,15.1
		C45.3,288.9,38.5,295.7,30.1,295.7z"/>
</g>
</svg>
