<?xml version="1.0" encoding="utf-8"?>
<!-- Generator: Adobe Illustrator 25.0.0, SVG Export Plug-In . SVG Version: 6.00 Build 0)  -->
<svg version="1.1" id="Layer_1" xmlns="http://www.w3.org/2000/svg" xmlns:xlink="http://www.w3.org/1999/xlink" x="0px" y="0px"
	 viewBox="0 0 1080 1080" style="enable-background:new 0 0 1080 1080;" xml:space="preserve">
<style type="text/css">
	.st0{fill:url(#SVGID_1_);}
	.st1{opacity:0.4;fill:url(#SVGID_2_);enable-background:new    ;}
	.st2{opacity:0.3;fill:url(#SVGID_3_);enable-background:new    ;}
	.st3{opacity:0.5;fill:url(#SVGID_4_);enable-background:new    ;}
	.st4{opacity:0.4;fill:#D3D3D3;enable-background:new    ;}
</style>
<g>
	
		<radialGradient id="SVGID_1_" cx="487.1678" cy="464.317" r="617.7863" fx="380.9171" fy="450.4542" gradientUnits="userSpaceOnUse">
		<stop  offset="0" style="stop-color:#FFFFFF"/>
		<stop  offset="0.6719" style="stop-color:#EDEDED"/>
		<stop  offset="1" style="stop-color:#E2E2E2"/>
	</radialGradient>
	<path class="st0" d="M1014.9,794.2c-139.6,261.9-465.1,361.1-727.1,221.5S-73.4,550.6,66.3,288.6C205.9,26.7,531.4-72.5,793.4,67.1
		C1055.3,206.7,1154.5,532.3,1014.9,794.2z"/>
	<radialGradient id="SVGID_2_" cx="540.5297" cy="541.42" r="537.4661" gradientUnits="userSpaceOnUse">
		<stop  offset="0" style="stop-color:#FFFFFF"/>
		<stop  offset="0.6719" style="stop-color:#EDEDED"/>
		<stop  offset="1" style="stop-color:#E2E2E2"/>
	</radialGradient>
	<path class="st1" d="M399.1,22.8c169-41.1,354.4,11.6,476,152.2c173,200.1,151,502.6-49.2,675.6c-200.1,173-502.6,151-675.6-49.2
		C-21.2,603-1,304.1,194.4,130.4c-1.8,1.5-3.5,2.9-5.3,4.4C-35.5,328.9-60.2,668.3,133.9,892.9S667.5,1142.1,892,948
		c224.6-194.1,249.2-533.5,55.2-758.1C807.5,28.3,592.4-29.8,399.1,22.8z"/>
	
		<radialGradient id="SVGID_3_" cx="485.5556" cy="465.9385" r="398.834" gradientTransform="matrix(0.9968 7.980000e-02 -7.980000e-02 0.9968 37.6423 -43.0213)" gradientUnits="userSpaceOnUse">
		<stop  offset="0" style="stop-color:#FFFFFF"/>
		<stop  offset="0.6719" style="stop-color:#EDEDED"/>
		<stop  offset="1" style="stop-color:#E2E2E2"/>
	</radialGradient>
	<path class="st2" d="M820.6,213.6c124.1,169.2,74.2,416.7-111.4,552.9c-185.7,136.2-436.7,109.4-560.8-59.7
		C24.2,537.5,74.1,290,259.8,153.8C445.4,17.7,696.5,44.4,820.6,213.6z"/>
	<radialGradient id="SVGID_4_" cx="375.5" cy="300.8666" r="254.8538" gradientUnits="userSpaceOnUse">
		<stop  offset="0" style="stop-color:#FFFFFF"/>
		<stop  offset="0.6719" style="stop-color:#EDEDED"/>
		<stop  offset="1" style="stop-color:#E2E2E2"/>
	</radialGradient>
	<path class="st3" d="M597.6,108.9c75.5,87.3,37.3,244.1-85.4,350.1s-283.3,121.2-358.8,33.8s-37.3-244.1,85.4-350.2
		C361.4,36.7,522.1,21.6,597.6,108.9z"/>
</g>
<path class="st4" d="M196.5,817.5c7.1-26.5,61.3-26.7,106.7,6.7c45.3,33.3,30.7,81.4,0,89.4C272.5,921.5,177.8,886.8,196.5,817.5z"
	/>
<path class="st4" d="M696.6,927.3c-4.5-23.9,20.4-54.3,60.4-63.1c40-8.9,77.4,4.5,83.6,40.9c6.2,36.5-37.7,71.1-72.2,61.4
	C733.9,956.6,701.9,955.7,696.6,927.3z"/>
<path class="st4" d="M302.7,968.1c5.6-20,49.8-6.1,50.2,21C353.4,1016.2,296.5,990.2,302.7,968.1z"/>
<path class="st4" d="M434.1,976.2c8.5,9.5,34,19.4,39.3-8.1C478.8,940.6,407.2,946.1,434.1,976.2z"/>
<path class="st4" d="M624.6,1012.6c19,2.3,45.8,3.4,49.8-22.2c4-25.6-53.3-24.1-65.8-10.8C596.1,993,607.7,1010.6,624.6,1012.6z"/>
<path class="st4" d="M902,416.1c12.4,9.8,49.8,12.4,56-21.3c6.2-33.8-35.6-48.9-56-41.8C881.5,360,863.8,385.8,902,416.1z"/>
<path class="st4" d="M841.2,245.4c13.8,12.2,65.6,18.7,77.8-3.6c12.3-22.2-20.2-53-62.4-56C814.4,182.8,792,201.8,841.2,245.4z"/>
<path class="st4" d="M522.7,173.5c17.1,12.1,67.2,4.3,71.6-24.1c4.4-28.4-44.6-34.8-71.6-25S491.4,151.4,522.7,173.5z"/>
<path class="st4" d="M403.2,103.1c18.9,8.7,46.5,6.2,47.7-7.1s-16.6-21.3-36.2-19.6C395.2,78.2,380.1,92.4,403.2,103.1z"/>
<path class="st4" d="M160.5,219.6c2.5-13.6,16.9-2.7,17.8,4.5C179.1,231.1,156.9,239.1,160.5,219.6z"/>
<path class="st4" d="M194.1,399.2c-4.4-11.7,14.4-8.9,15.3,0C210.3,408.1,197.4,408.1,194.1,399.2z"/>
<path class="st4" d="M145.4,678.3c6.2,10.7,24.4,5.4,22.9-9.8C166.7,653.5,139.1,667.7,145.4,678.3z"/>
<path class="st4" d="M117.8,798.3c2.6,4.4,16.2,9.2,17-5.6S111.6,787.6,117.8,798.3z"/>
<path class="st4" d="M558.6,1050.9c9.5,4.9,18.7-4,15.3-14.7C570.6,1025.6,539.2,1040.9,558.6,1050.9z"/>
<path class="st4" d="M514.6,1046.9c6.3-6.9-10.7-9.6-17.4-4.5C490.6,1047.6,506.5,1055.6,514.6,1046.9z"/>
<path class="st4" d="M463.9,1023.5c7.5,4.9,13.3,2,14-4.7C478.5,1012.2,450.5,1014.9,463.9,1023.5z"/>
<path class="st4" d="M536.6,883.5c-1.8-4.4,17.5-6.7,15.7,0C550.6,890.2,539.9,891.5,536.6,883.5z"/>
<path class="st4" d="M841.2,641.4c0.1-10,16.1-9.3,16.7,0C858.6,650.8,841.2,651.5,841.2,641.4z"/>
<path class="st4" d="M927.3,482.1c-0.7-10,18.7-10.7,19.3,0C947.3,492.7,928,492.1,927.3,482.1z"/>
<path class="st4" d="M785.3,132c-1.4-11.6,12-11.3,14,0S786,137.6,785.3,132z"/>
<path class="st4" d="M691.9,128c-10.5-7.4,5.3-13.9,12-8C710.6,126,703.3,136,691.9,128z"/>
<path class="st4" d="M603.3,86c-6.7-3.3,2-16.3,10.7-9.8C622.6,82.6,609.9,89.3,603.3,86z"/>
<path class="st4" d="M555.2,48.6c-7.2-8.4,8.7-6,14-3.3C574.6,48,566.6,62,555.2,48.6z"/>
<path class="st4" d="M671.9,74.4c-6.7-13.8,10.7-3.6,9.3,0C679.9,78,671.9,74.4,671.9,74.4z"/>
<path class="st4" d="M556.6,76.2c-6-4.9,5.2-5.2,5.6-0.2C562.6,81,556.6,76.2,556.6,76.2z"/>
<path class="st4" d="M454.3,81.5c-3.2-2.3,4.1-8,8-3.7C466,82.2,460,85.7,454.3,81.5z"/>
<path class="st4" d="M331.2,163.1c-6-4.9,12-11.1,18.7-4.5C356.5,165.3,340.5,170.7,331.2,163.1z"/>
<path class="st4" d="M386.6,621.9c17.1,12.1,67.2,4.3,71.6-24.1c4.4-28.4-44.6-34.8-71.6-25S355.3,599.8,386.6,621.9z"/>
<path class="st4" d="M583.6,700.2c6.2,10.7,24.4,5.4,22.9-9.8C604.9,675.4,577.3,689.6,583.6,700.2z"/>
<path class="st4" d="M695.4,507.6c6.2,10.7,24.4,5.4,22.9-9.8C716.7,482.8,689.1,497,695.4,507.6z"/>
<path class="st4" d="M701.4,683.4c12.4,9.8,49.8,12.4,56-21.3c6.2-33.8-35.6-48.9-56-41.8C680.9,627.3,663.2,653.1,701.4,683.4z"/>
<path class="st4" d="M427.3,801.2c13.8,12.2,65.6,18.7,77.8-3.6c12.3-22.2-20.2-53-62.4-56C400.5,738.6,378.1,757.6,427.3,801.2z"/>
<path class="st4" d="M953.1,634.5c-10.5-7.4,5.3-13.9,12-8C971.8,632.5,964.5,642.5,953.1,634.5z"/>
<path class="st4" d="M862.9,804c18.4,0.5,62.4-27.6,57.5-52.6c-4.8-24.9-49.5-27.8-83.8-3.1C802.2,773.1,797.2,802,862.9,804z"/>
<path class="st4" d="M667.8,843.6c6.2,10.7,24.4,5.4,22.9-9.8C689.1,818.8,661.5,833,667.8,843.6z"/>
<path class="st4" d="M975.7,740.3c10.8,18.4,42.6,9.3,39.9-16.8C1012.8,697.8,964.7,722.2,975.7,740.3z"/>
<path class="st4" d="M959.7,562.7c24.3,10.1,63.5-21.7,46.5-45.4C989.1,494.2,935.2,552.8,959.7,562.7z"/>
<path class="st4" d="M1015.8,624.2c-0.7-10,18.7-10.7,19.3,0C1035.8,634.8,1016.5,634.2,1015.8,624.2z"/>
<path class="st4" d="M927.3,861.6c-0.7-10,18.7-10.7,19.3,0C947.3,872.2,928,871.6,927.3,861.6z"/>
<path class="st4" d="M480.8,676.7c9.5,4.9,18.7-4,15.3-14.7C492.8,651.4,461.5,666.7,480.8,676.7z"/>
<path class="st4" d="M569.8,540c9.5,4.9,18.7-4,15.3-14.7C581.8,514.7,550.4,530,569.8,540z"/>
<path class="st4" d="M774.9,830.6c9.5,4.9,18.7-4,15.3-14.7C786.9,805.3,755.5,820.6,774.9,830.6z"/>
<path class="st4" d="M904.8,692.3c9.5,4.9,18.7-4,15.3-14.7C916.8,667,885.4,682.3,904.8,692.3z"/>
<path class="st4" d="M885.8,897.5c9.5,4.9,18.7-4,15.3-14.7C897.8,872.2,866.4,887.5,885.8,897.5z"/>
<path class="st4" d="M231.7,327.8c64.6,25.7,127.2-21,104.1-77.1C313.4,195,99.8,275.3,231.7,327.8z"/>
</svg>
