<?xml version="1.0" encoding="utf-8"?>
<!-- Generator: Adobe Illustrator 25.0.0, SVG Export Plug-In . SVG Version: 6.00 Build 0)  -->
<svg version="1.1" id="Layer_1" xmlns="http://www.w3.org/2000/svg" xmlns:xlink="http://www.w3.org/1999/xlink" x="0px" y="0px"
	 viewBox="0 0 1012.5 1018.4" style="enable-background:new 0 0 1012.5 1018.4;" xml:space="preserve">
<style type="text/css">
	.st0{fill:#3DAFC2;}
	.st1{clip-path:url(#SVGID_2_);}
	.st2{clip-path:url(#SVGID_4_);}
	.st3{clip-path:url(#SVGID_6_);}
</style>
<path class="st0" d="M384.1,434.1c0,9.1-7.4,16.4-16.4,16.4s-16.4-7.4-16.4-16.4s7.4-16.4,16.4-16.4S384.1,425,384.1,434.1"/>
<path class="st0" d="M673.7,242.6c0,9.1-7.4,16.4-16.4,16.4s-16.4-7.4-16.4-16.4s7.4-16.4,16.4-16.4S673.7,233.6,673.7,242.6"/>
<path class="st0" d="M190.1,370c0,5.1-4.1,9.2-9.2,9.2c-5.1,0-9.2-4.1-9.2-9.2c0-5.1,4.1-9.2,9.2-9.2S190.1,364.9,190.1,370"/>
<path class="st0" d="M428.5,207.2c0,12.3-9.9,22.2-22.2,22.2c-12.3,0-22.2-9.9-22.2-22.2c0-12.3,9.9-22.2,22.2-22.2
	C418.6,184.9,428.5,194.9,428.5,207.2"/>
<path class="st0" d="M647,588c0,12.3-9.9,22.2-22.2,22.2s-22.2-9.9-22.2-22.2s9.9-22.2,22.2-22.2C637,565.8,647,575.8,647,588"/>
<path class="st0" d="M212.3,661.9c0,12.3-9.9,22.2-22.2,22.2s-22.2-9.9-22.2-22.2s9.9-22.2,22.2-22.2
	C202.4,639.7,212.3,649.6,212.3,661.9"/>
<path class="st0" d="M135,207.2c0,9.1-7.4,16.4-16.4,16.4s-16.4-7.4-16.4-16.4s7.4-16.4,16.4-16.4S135,198.1,135,207.2"/>
<path class="st0" d="M454.7,713.7c0,9.1-7.4,16.4-16.4,16.4s-16.4-7.4-16.4-16.4s7.4-16.4,16.4-16.4S454.7,704.6,454.7,713.7"/>
<path class="st0" d="M524.6,16.4c0,9.1-7.4,16.4-16.4,16.4s-16.4-7.4-16.4-16.4S499.2,0,508.2,0C517.2,0,524.6,7.4,524.6,16.4"/>
<path class="st0" d="M345.9,978c0,9.1-7.4,16.4-16.4,16.4s-16.4-7.4-16.4-16.4c0-9.1,7.4-16.4,16.4-16.4S345.9,968.9,345.9,978"/>
<path class="st0" d="M778,398.6c0,8.1-6.6,14.6-14.6,14.6c-8.1,0-14.6-6.6-14.6-14.6s6.5-14.6,14.6-14.6S778,390.5,778,398.6"/>
<path class="st0" d="M752.4,829.9c0,9.1-7.3,16.4-16.4,16.4c-9.1,0-16.4-7.4-16.4-16.4s7.4-16.4,16.4-16.4
	C745.1,813.5,752.4,820.9,752.4,829.9"/>
<path class="st0" d="M338.7,603.1c0,5.1-4.1,9.2-9.2,9.2s-9.2-4.1-9.2-9.2c0-5.1,4.1-9.2,9.2-9.2S338.7,598,338.7,603.1"/>
<path class="st0" d="M144.2,554.5c0,5.1-4.1,9.2-9.2,9.2s-9.2-4.1-9.2-9.2c0-5.1,4.1-9.2,9.2-9.2S144.2,549.4,144.2,554.5"/>
<path class="st0" d="M18.8,473.2c0,5.1-4.1,9.2-9.2,9.2s-9.2-4.1-9.2-9.2c0-5.1,4.1-9.2,9.2-9.2S18.8,468.1,18.8,473.2"/>
<path class="st0" d="M292.9,69.4c0,5.1-4.1,9.2-9.2,9.2s-9.2-4.1-9.2-9.2s4.1-9.2,9.2-9.2S292.9,64.3,292.9,69.4"/>
<path class="st0" d="M87.8,770.4c0,5.1-4.1,9.2-9.2,9.2s-9.2-4.1-9.2-9.2c0-5.1,4.1-9.2,9.2-9.2C83.7,761.2,87.8,765.3,87.8,770.4"
	/>
<path class="st0" d="M463.9,346.7c0,5.1-4.1,9.2-9.2,9.2s-9.2-4.1-9.2-9.2c0-5.1,4.1-9.2,9.2-9.2S463.9,341.6,463.9,346.7"/>
<path class="st0" d="M491.8,563.7c0,5.1-4.1,9.2-9.2,9.2s-9.2-4.1-9.2-9.2c0-5.1,4.1-9.2,9.2-9.2
	C487.7,554.5,491.8,558.6,491.8,563.7"/>
<path class="st0" d="M621.9,147c0,5.1-4.1,9.2-9.2,9.2c-5.1,0-9.2-4.1-9.2-9.2s4.1-9.2,9.2-9.2C617.8,137.8,621.9,141.9,621.9,147"
	/>
<path class="st0" d="M274.5,858.1c0,5.1-4.1,9.2-9.2,9.2s-9.2-4.1-9.2-9.2s4.1-9.2,9.2-9.2S274.5,853,274.5,858.1"/>
<path class="st0" d="M500.9,880.8c0,5.1-4.1,9.2-9.2,9.2s-9.2-4.1-9.2-9.2s4.1-9.2,9.2-9.2S500.9,875.8,500.9,880.8"/>
<path class="st0" d="M641.3,978c0,5.1-4.1,9.2-9.2,9.2s-9.2-4.1-9.2-9.2s4.1-9.2,9.2-9.2S641.3,972.9,641.3,978"/>
<path class="st0" d="M625.5,755.3c0,7.1-5.7,12.8-12.8,12.8s-12.8-5.7-12.8-12.8s5.7-12.8,12.8-12.8
	C619.8,742.6,625.5,748.3,625.5,755.3"/>
<path class="st0" d="M787.2,593.9c0,5.1-4.1,9.2-9.2,9.2c-5.1,0-9.2-4.1-9.2-9.2c0-5.1,4.1-9.2,9.2-9.2
	C783.1,584.7,787.2,588.8,787.2,593.9"/>
<path class="st0" d="M612.7,391.2c0,5.1-4.1,9.2-9.2,9.2s-9.2-4.1-9.2-9.2c0-5.1,4.1-9.2,9.2-9.2S612.7,386.2,612.7,391.2"/>
<path class="st0" d="M812.2,114.1c0,5.1-4.1,9.2-9.2,9.2c-5.1,0-9.2-4.1-9.2-9.2s4.1-9.2,9.2-9.2C808.1,104.9,812.2,109,812.2,114.1
	"/>
<path class="st0" d="M876.5,740.1c0,5.1-4.1,9.2-9.2,9.2c-5.1,0-9.2-4.1-9.2-9.2s4.1-9.2,9.2-9.2
	C872.4,730.9,876.5,735.1,876.5,740.1"/>
<path class="st0" d="M997.6,639.7c0,5.1-4.1,9.2-9.2,9.2s-9.2-4.1-9.2-9.2c0-5.1,4.1-9.2,9.2-9.2S997.6,634.6,997.6,639.7"/>
<path class="st0" d="M867.3,871.7c0,5.1-4.1,9.2-9.2,9.2c-5.1,0-9.2-4.1-9.2-9.2s4.1-9.2,9.2-9.2S867.3,866.6,867.3,871.7"/>
<path class="st0" d="M911.3,482.3c0,5.1-4.1,9.2-9.2,9.2c-5.1,0-9.2-4.1-9.2-9.2c0-5.1,4.1-9.2,9.2-9.2
	C907.2,473.2,911.3,477.3,911.3,482.3"/>
<path class="st0" d="M997.6,383.9c0,5.1-4.1,9.2-9.2,9.2s-9.2-4.1-9.2-9.2c0-5.1,4.1-9.2,9.2-9.2S997.6,378.9,997.6,383.9"/>
<path class="st0" d="M902.1,276.7c0,5.1-4.1,9.2-9.2,9.2c-5.1,0-9.2-4.1-9.2-9.2s4.1-9.2,9.2-9.2S902.1,271.6,902.1,276.7"/>
<path class="st0" d="M368.3,434.7l-1.2-1.2l87.3-92.4l1.3,1.2L368.3,434.7"/>
<path class="st0" d="M10,464.7l-0.8-1.5l175.9-98.3l0.8,1.5L10,464.7"/>
<path class="st0" d="M181.5,369.3L364,430.9L120.6,210.2L181.5,369.3z M367.4,433.8l-187.1-63.1l-0.1-0.4l-62.4-162.8l1.4-0.9
	l249.1,225.8L367.4,433.8"/>
<path class="st0" d="M77.8,761.4L8.3,471.3L134,552.9l-16.4-346.6h0.9l278.6,5.7v1.7L119.4,208l16.5,348.1L10.9,475l68.5,286
	L77.8,761.4"/>
<path class="st0" d="M323.8,979l-0.4-0.3l-246-208.2L180.3,656l1.3,1.1L79.8,770.3L324.1,977l410.2-150.8l0.6,1.6L323.8,979"/>
<path class="st0" d="M265.9,852.9l-1.1-1.3l167.1-136.4l1.1,1.3L265.9,852.9"/>
<path class="st0" d="M613.5,756.4l-175.4-41.9L190,662.7l0.3-1.7l248.2,51.8L612,754.2l12-166.3l1.7,0.1L613.5,756.4"/>
<path class="st0" d="M437.4,713.9L372,434.3l1.7-0.4l65.4,279.6L437.4,713.9"/>
<path class="st0" d="M778.9,594.8L624,585.5l-0.1-0.7L602.7,388l1.7-0.2l21.2,196.1l151.6,9.1L768,400.5l1.7-0.1L778.9,594.8"/>
<path class="st0" d="M329.2,979.2l-64.6-111.5l1.5-0.9l63.8,110l161.9-97l0.4,0.3l140.4,88l-0.9,1.5l-139.9-87.7L329.2,979.2"/>
<path class="st0" d="M491.8,881.7h-0.1l-227.5-25.6l0.2-1.7L491.7,880l243.1-50.7l-110-238l1.6-0.7l110.9,240l-1.1,0.2L491.8,881.7"
	/>
<path class="st0" d="M370,433.4l255.3,156.4l137.3-191.6L802,115.1l-188.5,32.6l-9.2,240.9L370,433.4z M181.8,373.1l9,286.4
	l94-124.7L181.8,373.1z M285.9,536.2l-93.2,123.6l135.6-57.1L285.9,536.2z M189.3,664.3l-9.4-297.5L286,533.2l75.3-99.9l0.3-0.1
	l241.1-46.1l9.2-240.9L804.1,113l-39.9,285.8l-0.1,0.2L625.7,592l-0.7-0.4L372.3,436.8l112,123.9l-154.5,39.9l-0.4-1.7l151.8-39.2
	L367.3,433.9l-5.1,1L287,534.8l43.8,68.7l-0.9,0.4l-139.2,58.7L189.3,664.3"/>
<path class="st0" d="M632.5,978.9H337.6v-1.7h294.1l107.9-147.7l1.4,1L632.5,978.9"/>
<path class="st0" d="M859.5,869.2l-1.7-0.1l8.5-127.2l-129.9,88.8l-1-1.4l132.8-90.8L859.5,869.2"/>
<path class="st0" d="M866.8,740.9L624.3,585.4l0.9-1.4l239.4,153.4l-88.4-144.8l1.9,0.4L991,638.8l-0.4,1.7l-210.9-45.3L868,739.7
	L866.8,740.9"/>
<path class="st0" d="M491.8,882l-0.6-0.4L191.9,664.3l75,195.5l-1.9-0.9l-187.4-88l0.2-0.7l56.6-216.7l0.8,0.2l194.6,48.6l-0.4,1.7
	l-193.7-48.4L79.7,770l184.2,86.5l-75.5-196.9l303.4,220.2L613,761.1L481.9,564.2l1.4-1l131.9,198.1L491.8,882"/>
<path class="st0" d="M397.9,207.6l-1.5-0.9l110-189L283.9,70.2l-0.4-1.7l226.4-53.4L397.9,207.6"/>
<path class="st0" d="M510.6,18.1l102.8,128.4v0.1l44.1,94.6l143.8-126.8L510.6,18.1z M603.6,392.1L454,347.4l-0.1-0.4L405,206.1
	l250.8,35.4L612,147.4L505.7,14.7l299.1,99.1l-146.5,129l0.4,0.9l-251.2-35.5L455.3,346l148.8,44.5L603.6,392.1"/>
<path class="st0" d="M407.7,211.3l-0.5-1.6l202.6-63.5l0.5,1.6L407.7,211.3"/>
<path class="st0" d="M624.8,591.4l-170.7-244L119.5,211.3l0.7-1.6l335,136.3l0.1,0.2l170.8,244.3L624.8,591.4"/>
<path class="st0" d="M373.7,433.1l-1.7-0.2L405.4,207l1.7,0.3L373.7,433.1"/>
<path class="st0" d="M605.1,390.4l156.6,7.2L657.5,244.5L605.1,390.4z M605.8,392.2l172.3,197.5l122.6-107.3l-137.5-83L605.8,392.2z
	 M777.9,592.2l-0.6-0.7L604,392.7l-115,168l-1.4-1l115.2-168.4l-0.9-1l1.4,0.1l53.8-149.6l106.5,156.5l128.8-127l1.2,1.2
	L764.8,398.4l138.8,83.8L777.9,592.2"/>
<path class="st0" d="M858.8,872.1l-1.5-0.8l128.2-228.2l-117.1,93.5l-1.1-1.3L987.9,639l1.3,1.1L858.8,872.1"/>
<path class="st0" d="M763.4,399.4l-0.1-1.7l225-14.6l0.1,1.7L763.4,399.4"/>
<path class="st0" d="M614.1,754.1l120.4,68.7l42.1-226.4L614.1,754.1z M632.2,978.9l-0.3-0.1L264.4,858.6l0.2-0.8l101.9-423.2
	L136.1,554.9l57.2,106.6l-1.5,0.8l-58.1-108.1l235.1-122.8L266.2,857.5L632,977.1l223.8-105.3l-122.2-44.2l0.6-3l-122.9-70.2
	l0.8-0.8l167.2-162.2l-43.2,232.3l4.5,2.6l-0.9,1.5l-4-2.3l-0.2,1l124.7,45.1L632.2,978.9"/>
<path class="st0" d="M438.7,717l-0.9-1.4L622.6,592l-293,8.7l-0.1-1.7l298.9-8.9L438.7,717"/>
<path class="st0" d="M902.9,482.1l84.6,154.2v-252l-93.7-105.2L902.9,482.1z M987.7,640.1l-86.4-157.5v-0.2l-9.2-204.9l-234.6-34
	L455.1,347.4l-0.8-1.5l202.9-104.2l234.2,33.9l-89-161.1l1.3-1l99,96.4l-1.2,1.2l-94.9-92.3L893.4,276h0.3v0.4l95.5,107.2v256.1
	L987.7,640.1"/>
<path class="st0" d="M633.2,981l-1.8-2.5l-190-264.3l1.4-1L631,975l-19.1-220.6l1.7-0.1L633.2,981"/>
<path class="st0" d="M370.2,167.9L187.5,364.1L405,207L370.2,167.9z M188,663L8.6,473.3l109.2-266.7l0.2-0.1L283.8,68.2l0.6,0.6
	l85.9,96.6L504.2,21.6l1.3,1.2l-134,143.9l36.2,40.6l-0.8,0.6L181.4,370.7l-1.1-1.3l188.8-202.7l-85.5-96.1L119.3,207.7L10.6,473
	l178.7,188.9L188,663"/>
<path class="st0" d="M902.7,482.9l-1.3-1.1l86.3-98.4l1.3,1.1L902.7,482.9"/>
<path class="st0" d="M989.8,641.6l-1.9-1.2L602.1,388.6l0.9-1.4l384,250.5l-94.9-360.5L507.7,17.1l0.7-1.5l170.9,37.1l-0.4,1.7
	L512.4,18.2l381.3,258l0.1,0.3L989.8,641.6"/>
<path class="st0" d="M898.8,276.8l-1.7-0.1l4.1-70.4l1.7,0.1L898.8,276.8"/>
<g>
	<g>
		<defs>
			<rect id="SVGID_1_" x="502" y="1007" width="12" height="11.4"/>
		</defs>
		<clipPath id="SVGID_2_">
			<use xlink:href="#SVGID_1_"  style="overflow:visible;"/>
		</clipPath>
		<g class="st1">
			<path class="st0" d="M513.5,1013.1c0,3-2.4,5.4-5.4,5.4s-5.4-2.4-5.4-5.4s2.4-5.4,5.4-5.4S513.5,1010.2,513.5,1013.1"/>
		</g>
	</g>
</g>
<path class="st0" d="M180.4,886.2c0,3-2.4,5.4-5.4,5.4s-5.4-2.4-5.4-5.4s2.4-5.4,5.4-5.4S180.4,883.3,180.4,886.2"/>
<path class="st0" d="M745.6,956.2c0,3-2.4,5.4-5.4,5.4s-5.4-2.4-5.4-5.4s2.4-5.4,5.4-5.4C743.2,950.8,745.6,953.2,745.6,956.2"/>
<path class="st0" d="M175.8,888.5L77.9,770.9l1.3-1.1l95,114.2l11.6-217.9l1.7,0.1L175.8,888.5"/>
<path class="st0" d="M508.2,1014H508l-178.6-35.1l0.3-1.7l178.4,35.1l123.8-35.1l107.5-21.7L735.2,830l1.7-0.1l4.3,127l-108.9,21.9
	L508.2,1014"/>
<path class="st0" d="M507.3,1013.2l-14-130.8l1.7-0.2l14,130.8L507.3,1013.2"/>
<path class="st0" d="M438.2,718.7L370.4,882l120.2-2.1L438.2,718.7z M336.9,884.3l-6.2,88.5l37-89L336.9,884.3z M330.3,978.3
	l-1.6-0.4l6.5-93.6L175,887v-1.7l160.3-2.7l31.5-449.7l1.7,0.1l-31.4,449.6l31.4-0.5l69.9-168.3l54.5,167.9l-123.3,2.1L330.3,978.3"
	/>
<path class="st0" d="M740.7,956.9l-1-1.4l117.1-84L622.2,585.3l1.3-1.1l235.8,287.6l-0.7,0.5L740.7,956.9"/>
<path class="st0" d="M944.9,761.2c0,3-2.4,5.4-5.4,5.4s-5.4-2.4-5.4-5.4s2.4-5.4,5.4-5.4S944.9,758.2,944.9,761.2"/>
<g>
	<g>
		<defs>
			<rect id="SVGID_3_" x="1001" y="492" width="11" height="12"/>
		</defs>
		<clipPath id="SVGID_4_">
			<use xlink:href="#SVGID_3_"  style="overflow:visible;"/>
		</clipPath>
		<g class="st2">
			<path class="st0" d="M1012.1,497.6c0,3-2.4,5.4-5.4,5.4s-5.4-2.4-5.4-5.4s2.4-5.4,5.4-5.4S1012.1,494.7,1012.1,497.6"/>
		</g>
	</g>
</g>
<path class="st0" d="M939.8,762.8L777.4,594.5l1.2-1.2l160.6,166.4l48.4-120.2l17.9-141.9l1.7,0.2l-18,142.1v0.1L939.8,762.8"/>
<g>
	<g>
		<defs>
			<rect id="SVGID_5_" x="866" y="210" width="146" height="531"/>
		</defs>
		<clipPath id="SVGID_6_">
			<use xlink:href="#SVGID_5_"  style="overflow:visible;"/>
		</clipPath>
		<g class="st3">
			<path class="st0" d="M902.8,483.3l-33.6,248.5L953,490.3L902.8,483.3z M868.1,740.4l-1.7-0.4l34.9-258.7l52.3,7.3L990,384
				l-87.8-173.2l1.5-0.8l88.1,173.8l-0.1,0.3l-36.3,104.6l56.8,7.9l-0.2,1.7l-57.1-7.9L868.1,740.4"/>
		</g>
	</g>
</g>
<path class="st0" d="M858.8,869.6l-1.4-1l81.4-107.9l1.4,1L858.8,869.6"/>
<path class="st0" d="M1005.5,497.7L990,384.1l1.7-0.2l15.5,113.7L1005.5,497.7"/>
<path class="st0" d="M332.9,976.4L174.6,887l0.8-1.5l158.3,89.4L332.9,976.4"/>
<path class="st0" d="M184.8,375l-1.6-0.5L283.3,68.2l373.4,173.1l21.7-189.1l125.1,61.1l-0.8,1.5l-123-60L658,243.9l-1.1-0.5
	L284.2,70.6L184.8,375"/>
<path class="st0" d="M906.2,210.5c0,2.3-1.8,4.1-4.1,4.1s-4.1-1.8-4.1-4.1c0-2.3,1.9-4.1,4.1-4.1
	C904.4,206.3,906.2,208.2,906.2,210.5"/>
<path class="st0" d="M683.1,53.6c0,2.3-1.8,4.1-4.1,4.1s-4.1-1.8-4.1-4.1s1.9-4.1,4.1-4.1C681.3,49.4,683.1,51.3,683.1,53.6"/>
</svg>
