<?xml version="1.0" encoding="utf-8"?>
<!-- Generator: Adobe Illustrator 25.0.0, SVG Export Plug-In . SVG Version: 6.00 Build 0)  -->
<svg version="1.1" id="Layer_1" xmlns="http://www.w3.org/2000/svg" xmlns:xlink="http://www.w3.org/1999/xlink" x="0px" y="0px"
	 viewBox="0 0 1012.5 1018.4" style="enable-background:new 0 0 1012.5 1018.4;" xml:space="preserve">
<style type="text/css">
	.st0{fill:#BC7CB2;}
	.st1{fill:#9B7DB0;}
	.st2{fill:#3DAFC2;}
	.st3{clip-path:url(#SVGID_2_);}
	.st4{clip-path:url(#SVGID_4_);}
	.st5{clip-path:url(#SVGID_6_);}
</style>
<g id="surface1">
	<path class="st0" d="M329.5,315.1c0,5.1-4.1,9.2-9.2,9.2s-9.2-4.1-9.2-9.2c0-5.1,4.1-9.2,9.2-9.2S329.5,310,329.5,315.1"/>
	<path class="st0" d="M355.9,497.6c0,5.1-4.1,9.2-9.2,9.2s-9.2-4.1-9.2-9.2c0-5.1,4.1-9.2,9.2-9.2S355.9,492.6,355.9,497.6"/>
	<path class="st0" d="M500,359.8c0,3.2-2.6,5.9-5.9,5.9c-3.2,0-5.9-2.6-5.9-5.9s2.6-5.9,5.9-5.9C497.4,353.9,500,356.5,500,359.8"/>
	<path class="st0" d="M541.6,113.8c0,5.1-4.1,9.2-9.2,9.2c-5.1,0-9.2-4.1-9.2-9.2c0-5.1,4.1-9.2,9.2-9.2
		C537.5,104.6,541.6,108.7,541.6,113.8"/>
	<path class="st0" d="M352.6,157.9c0,3.2-2.6,5.9-5.9,5.9s-5.9-2.6-5.9-5.9s2.6-5.9,5.9-5.9S352.6,154.7,352.6,157.9"/>
	<path class="st0" d="M210.2,428.2c0,3.2-2.6,5.9-5.9,5.9s-5.9-2.6-5.9-5.9c0-3.2,2.6-5.9,5.9-5.9S210.2,425,210.2,428.2"/>
	<path class="st0" d="M204.3,242.6c0,3.2-2.6,5.9-5.9,5.9c-3.2,0-5.9-2.6-5.9-5.9c0-3.2,2.6-5.9,5.9-5.9
		C201.7,236.8,204.3,239.4,204.3,242.6"/>
	<path class="st0" d="M580.2,614.8c0,3.2-2.6,5.9-5.9,5.9c-3.2,0-5.9-2.6-5.9-5.9c0-3.2,2.6-5.9,5.9-5.9
		C577.6,608.9,580.2,611.5,580.2,614.8"/>
	<path class="st0" d="M564.1,497.6c0,5.1-4.1,9.2-9.2,9.2s-9.2-4.1-9.2-9.2c0-5.1,4.1-9.2,9.2-9.2S564.1,492.6,564.1,497.6"/>
	<path class="st0" d="M311.2,704.6c0,5.1-4.1,9.2-9.2,9.2s-9.2-4.1-9.2-9.2c0-5.1,4.1-9.2,9.2-9.2S311.2,699.5,311.2,704.6"/>
	<path class="st0" d="M69.4,608.9c0,5.1-4.1,9.2-9.2,9.2s-9.2-4.1-9.2-9.2c0-5.1,4.1-9.2,9.2-9.2S69.4,603.9,69.4,608.9"/>
	<path class="st0" d="M46.7,374.8c0,5.1-4.1,9.1-9.2,9.1c-5.1,0-9.2-4.1-9.2-9.1c0-5.1,4.1-9.2,9.2-9.2
		C42.6,365.6,46.7,369.7,46.7,374.8"/>
	<path class="st0" d="M712.9,285.9c0,5.1-4.1,9.2-9.2,9.2c-5.1,0-9.2-4.1-9.2-9.2c0-5.1,4.1-9.2,9.2-9.2
		C708.8,276.7,712.9,280.8,712.9,285.9"/>
	<path class="st0" d="M192.6,593.9c0,3.2-2.6,5.9-5.9,5.9s-5.9-2.6-5.9-5.9s2.6-5.9,5.9-5.9S192.6,590.7,192.6,593.9"/>
	<path class="st0" d="M186.8,802.2c0,3.2-2.6,5.9-5.9,5.9c-3.2,0-5.9-2.6-5.9-5.9s2.6-5.9,5.9-5.9
		C184.1,796.3,186.8,799,186.8,802.2"/>
	<path class="st0" d="M438.3,614.8c0,3.2-2.6,5.9-5.9,5.9s-5.9-2.6-5.9-5.9c0-3.2,2.6-5.9,5.9-5.9S438.3,611.5,438.3,614.8"/>
	<path class="st0" d="M472.5,755.3c0,3.2-2.6,5.9-5.9,5.9s-5.9-2.6-5.9-5.9c0-3.2,2.6-5.9,5.9-5.9S472.5,752.1,472.5,755.3"/>
	<path class="st0" d="M466.6,242.6c0,3.2-2.6,5.9-5.9,5.9s-5.9-2.6-5.9-5.9c0-3.2,2.6-5.9,5.9-5.9S466.6,239.4,466.6,242.6"/>
	<path class="st0" d="M669,405.7c0,3.2-2.6,5.9-5.9,5.9s-5.9-2.6-5.9-5.9s2.6-5.9,5.9-5.9S669,402.5,669,405.7"/>
	<path class="st0" d="M600.5,270.9c0,3.2-2.6,5.9-5.9,5.9c-3.2,0-5.9-2.6-5.9-5.9c0-3.2,2.6-5.9,5.9-5.9
		C597.9,265,600.5,267.6,600.5,270.9"/>
	<path class="st0" d="M674.9,152.1c0,3.2-2.6,5.9-5.9,5.9c-3.2,0-5.9-2.6-5.9-5.9c0-3.2,2.6-5.9,5.9-5.9
		C672.3,146.2,674.9,148.8,674.9,152.1"/>
	<path class="st0" d="M426.5,37.2c0,3.2-2.6,5.9-5.9,5.9s-5.9-2.6-5.9-5.9c0-3.2,2.6-5.9,5.9-5.9S426.5,33.9,426.5,37.2"/>
	<path class="st0" d="M237.4,121.4c0,4-3.3,7.3-7.3,7.3c-4,0-7.3-3.3-7.3-7.3c0-4,3.3-7.3,7.3-7.3
		C234.1,114.1,237.4,117.4,237.4,121.4"/>
	<path class="st0" d="M727.5,547.2c0,4-3.3,7.3-7.3,7.3c-4.1,0-7.3-3.3-7.3-7.3c0-4,3.3-7.3,7.3-7.3
		C724.3,539.9,727.5,543.1,727.5,547.2"/>
	<path class="st0" d="M832.7,391.2c0,4-3.3,7.3-7.3,7.3c-4,0-7.3-3.3-7.3-7.3c0-4,3.3-7.3,7.3-7.3
		C829.5,383.9,832.7,387.2,832.7,391.2"/>
	<path class="st0" d="M832.7,184.9c0,4.1-3.3,7.3-7.3,7.3c-4,0-7.3-3.3-7.3-7.3c0-4,3.3-7.3,7.3-7.3
		C829.5,177.6,832.7,180.9,832.7,184.9"/>
	<path class="st0" d="M632.1,37.2c0,4-3.3,7.3-7.3,7.3c-4,0-7.3-3.3-7.3-7.3c0-4,3.3-7.3,7.3-7.3C628.8,29.8,632.1,33.1,632.1,37.2"
		/>
	<path class="st0" d="M670.5,732.8c0,4-3.3,7.3-7.3,7.3c-4,0-7.3-3.3-7.3-7.3c0-4.1,3.3-7.3,7.3-7.3
		C667.2,725.5,670.5,728.8,670.5,732.8"/>
	<path class="st0" d="M367.6,852.2c0,3.2-2.6,5.9-5.9,5.9s-5.9-2.6-5.9-5.9c0-3.2,2.6-5.9,5.9-5.9S367.6,849,367.6,852.2"/>
	<path class="st0" d="M803.1,667.7c0,3.2-2.6,5.9-5.9,5.9c-3.2,0-5.9-2.6-5.9-5.9c0-3.2,2.6-5.9,5.9-5.9
		C800.4,661.9,803.1,664.5,803.1,667.7"/>
	<path class="st1" d="M592,875c0,3.2-2.6,5.9-5.9,5.9c-3.2,0-5.9-2.6-5.9-5.9c0-3.2,2.6-5.9,5.9-5.9C589.3,869.1,592,871.8,592,875"
		/>
	<path class="st1" d="M934.1,506.8c0,3.2-2.6,5.9-5.9,5.9c-3.2,0-5.9-2.6-5.9-5.9c0-3.2,2.6-5.9,5.9-5.9
		C931.5,500.9,934.1,503.6,934.1,506.8"/>
	<path class="st0" d="M620.9,39.2l2.5,0l0.3-2.3L620.9,39.2z M426.8,38.1l42.7,31.2L616,41l0.1-0.1L426.8,38.1z M422,36.7L393,84
		l74.2-14.3L422,36.7z M418.6,39l-176.8,74.2l149-28.8L418.6,39z M471.4,70.6l63,46l-2.9-7.5l81.7-65.8L471.4,70.6z M229.7,118.2
		l4,0.3l-2.5-0.9L229.7,118.2z M240.2,119l123.7,9.3l25.6-41.9l-155.5,30l-0.5,0.2L240.2,119z M365.8,128.5l87.3,6.6l80.3-17
		l-64.4-47L391.8,86L365.8,128.5z M459.3,135.5l62.1,4.7l12-20.3L459.3,135.5z M523.2,140.3l8.9,0.7l3.7-20.6l-0.3-0.8L523.2,140.3z
		 M533.9,141.1l10.4,0.8l-7.2-18.5L533.9,141.1z M546.1,142l64.9,4.9l12.2-105.5l-6.5,1.2l-83.2,67l2.3,6l1.3-2.2l1.6,0.6l-1.1,6.2
		L546.1,142z M246.3,121.2l100.1,35.7l16.5-26.9L246.3,121.2z M364.8,130.1l-16.6,27.1l0.5-0.1l98.4-20.8L364.8,130.1z M671,148.4
		l150.5,37.4l2.8-4L626.7,37.4L671,148.4z M826.3,187.9v1.9l0.8-2.5L826.3,187.9z M822.2,187.7l-1.8,2.5l2.9-2.2L822.2,187.7z
		 M230.3,120l36.3,81.8l77.4-43l3.4,2.4l0.7-3.9l-1,1.7l-107.3-38.2L230.3,120z M230.2,124l-29.8,114.6l64.8-36L230.2,124z
		 M348.7,164.2l-13,74.5l114.8-0.6L348.7,164.2z M267.4,203.4l15.8,35.6l50.7-0.3l13.2-75.6l-3.2-2.3L267.4,203.4z M265.9,204.2
		l-63.4,35.2l78.8-0.4L265.9,204.2z M455.7,239.8l0.7,0.5l1-0.5L455.7,239.8z M457.9,241.4l2.6,1.9l59.8-101.5l-67.1-5l-103.6,21.9
		l-0.7,3.7l104.3,75.8l7.4,0l0.4,1.6L457.9,241.4z M463.5,241.6l48.6,12.1l19.7-111.1l-9.6-0.7L463.5,241.6z M546.8,143.8
		l48.6,124.6l1.2,2.5l0-0.1l14.1-122.2L546.8,143.8z M612.7,147l57,4.3l0.2,0.6l37,126.7l109-84.8l4.5-6.5l-150.7-37.5l-0.2-0.4
		l-44.3-111L612.7,147z M598.5,270.1l105,11.1l1.9-1.5l-37-126.8l-55.8-4.2L598.5,270.1z M708.8,285.4l26.2,24.2l77.5-111.1
		l-105.2,81.8L708.8,285.4z M199.5,242.2L312.8,312l0.9-0.2l-31.6-71.1l-82.3,0.4L199.5,242.2z M335.3,240.4l-12.7,72.4l132.1-71.6
		l-1.9-1.4L335.3,240.4z M315.6,312l4.2,4.8l-0.4-2.1l1.3-0.7l12.9-73.4l-49.6,0.3L315.6,312z M200.6,244.9l48.2,81.5l61.6-13.8
		L200.6,244.9z M199.5,246.4l2.9,90.5l44.7-10.1L199.5,246.4z M736.3,310.8l41.4,38.3l46.9-153.7v-6.2l-7.4,5.8L736.3,310.8z
		 M513.5,255.8l-17,95.9l91.4-77.5L513.5,255.8z M465.2,243.8l26.5,111.9l2.7-2.2l17.4-98.1L465.2,243.8z M323.3,320.7L490,357.2
		l0.3-0.2l-27.1-114.7l-2.1,3.5l-4.8-3.5l-134,72.7l-0.5,3l0.2,1.3L323.3,320.7z M492.2,357.7l1.4,0.3l0.3-1.9l-1.7,1.5L492.2,357.7
		z M495.2,358.4l2.4,0.5l119.3-43.7l-23-46.1l-49-125.4l-11.4-0.9l-19.8,111.3l77.7,19.3l-95.5,81L495.2,358.4z M43.2,367.4l0.4,5.2
		l157-35.3l-2.9-92.9L43.2,367.4z M40.8,374.9l1.3,0.4l0-0.7L40.8,374.9z M325.2,322.9l54.7,62.5l108-26.4l0.4-0.4L325.2,322.9z
		 M779.1,350.4l43.8,40.6l1.7-0.1V201.3L779.1,350.4z M322.6,322.5l13.2,73.6l42.2-10.3L322.6,322.5z M778.5,352.3l-13.4,44l55.5-5
		L778.5,352.3z M619.3,316.1l41.6,83.3l36.9-112L619.3,316.1z M735.3,312.2l-64.5,92.4l92.5-8.3l13.9-45.4L735.3,312.2z M249.7,328
		l46.1,78l38.3-9.4l-13.4-74.6l-1.3-0.3l0.4-2.3l-1.8-2.1l-5.5-3.4L249.7,328z M43.9,375.9l159.6,51.2l-2.8-88.1L43.8,374.3
		L43.9,375.9z M381.2,386.8l38.6,44.1l71.8-69.8L491,360l-0.2-0.8l-0.3-0.1l-1.8,1.5l-0.2,0.1L381.2,386.8z M210.7,428.5l134.7,64.4
		L295,407.9L210.7,428.5z M336.1,397.8l17.5,97.3l64.9-63.1l-39.2-44.8L336.1,397.8z M347.6,494l4.5,2.1l-17.6-97.9l-37.7,9.2
		l50.9,86L347.6,494z M493.6,361.5l66.7,134.8l98.7-91l1.2-3.6l-42.5-85l-120,44l-2.8-0.6l0,0.1L493.6,361.5z M347.1,496.6l2.1,2.9
		l1.9-1.9l-3.9-1.9L347.1,496.6z M662,401.5l1.9,3.8l56.6,131.2l42.2-138.4l-95.4,8.6l66.8-95.7l-26.7-24.7l-1.4-4.9L704,283l-0.3,0
		l-106.5-11.2l21.4,42.9l82-30.1L662,401.5z M721.5,539l3.1,7.3l198.9-40l-93.9-114.1l-3.3,0.3v4.1l-4-3.7l-57.7,5.2L721.5,539z
		 M44,377.7L61,603l124.9-9.9l13.5-160.7l1.7,0.1l-13.4,159.7l157.3-94.7l0.5-2.7l-140-67l88.5-21.6l-46.2-78l-45.6,10.3l2.9,90.8
		L44,377.7z M420.9,432.2l150.8,172.3l-19.1-106.8l165,48.4l2.2-7.1l-57.3-133l-1.1-2.2l-0.8,2.4l-0.2,0.1L559.8,499l-67.5-136.3
		L420.9,432.2z M573.8,607l0.8,0.9L723,546.7l-2.3-5.2l-2.1,6.8l-164-48.1L573.8,607z M350.5,500.5l222.7,112.7l-1-5.5L419.6,433.4
		L354,497.2l0.3,2l-1.6-0.8L350.5,500.5z M351.9,503.1L433.6,615l-120.7,85.2l261.4-83l0.2,0.1l220.9,52.3l-71.6-121.2l-149.4,61.6
		l1.2,6.5l-1.5-0.8L351.9,503.1z M346.6,498.9l-40,203.3l0.9-0.3l123.6-87.3l-82.7-113.1l-0.9-0.4l0.3-0.3L346.6,498.9z
		 M188.2,594.1l114.1,109.5l2.5-0.8l39.9-202.9L188.2,594.1z M304,706.5l0.4-1.8l-2.6,0.8l-0.4-0.4l-115-110.4l-127,10L42.3,377.2
		l-7.9-2.5l7.6-1.7l-0.5-6.3l155.7-124l-0.1-0.1l-1.7,1l-0.8-1.5l1.7-0.9l-0.9-1.5l3.1,0L229.5,120l-3.5-0.3l-0.3-1.6l3-1.3l-2-0.7
		l6.7-1.3l189.3-79.4l-0.6,0.9l196,2.9l5.8-4.7l0.1-1.1l0.7,0.5l0.4-0.3l0.3,0.8l201.1,147l-3.4,4.8l1.8,0.4l5.2-4.1l-4,13.1v195
		l4.1-0.4l0.3,0.3l96,116.6l-201.2,40.4L799,672.1L574.4,619l-266.1,84.5L304,706.5"/>
	<path class="st0" d="M703,600.6l93.5,65.6l27.7-268.4L721,547.6L703,600.6z M40.3,380.3l139.9,417.3l9.8-199.4L40.3,380.3z
		 M302.2,708.6l-118.2,92.2l278.7-45.7L302.2,708.6z M179.9,804l0.1-1.7L36.8,375l1.5-0.8l153.6,223.4l-10,202.7l120-93.6l0.4,0.1
		l164,47.5l108.1-141L657,730.9l44-129.7L555.1,498.7L431.4,616.9l29.7-374.4l1.7,0.1l-29.4,369.9l121.5-116.1l146.7,103l17.9-52.8
		l105.2-152.6l1.6,0.6l-28.4,274.6l-95.4-67l-44.9,132.4l-83.2-118.5L467,756.3l-0.4-0.1L181.2,803L179.9,804"/>
	<path class="st0" d="M586.3,876.4L466.6,756.5l-105.2,97.2l-56.9-148.8l1.6-0.6l56,146.5l104.6-96.6l0.6,0.6l118.6,118.8L662,733.2
		L432.2,615.6l-245.5-22.9l0.2-1.7l245.8,23l0.1,0.1l231.5,118.4L586.3,876.4"/>
	<path class="st0" d="M359.2,847.4L59.7,609.6l0.9-1.5l237.7,95.6L663,731.9l139.7-65l0.7,1.5l-140.1,65.2l-0.2,0l-365.2-28.3
		l-0.1,0L65.4,611.9l294.8,234.2L359.2,847.4"/>
	<path class="st0" d="M362.1,855.2l-0.6-1.6L662,734.7L554.2,493.5l1.6-0.7l108.5,242.9L362.1,855.2"/>
	<path class="st2" d="M384.1,434.1c0,9.1-7.4,16.4-16.4,16.4s-16.4-7.4-16.4-16.4s7.4-16.4,16.4-16.4S384.1,425,384.1,434.1"/>
	<path class="st2" d="M673.7,242.6c0,9.1-7.4,16.4-16.4,16.4s-16.4-7.4-16.4-16.4s7.4-16.4,16.4-16.4S673.7,233.6,673.7,242.6"/>
	<path class="st2" d="M190.1,370c0,5.1-4.1,9.2-9.2,9.2c-5.1,0-9.2-4.1-9.2-9.2c0-5.1,4.1-9.2,9.2-9.2
		C186,360.8,190.1,364.9,190.1,370"/>
	<path class="st2" d="M428.5,207.2c0,12.3-9.9,22.2-22.2,22.2c-12.3,0-22.2-9.9-22.2-22.2c0-12.3,9.9-22.2,22.2-22.2
		C418.6,184.9,428.5,194.9,428.5,207.2"/>
	<path class="st2" d="M647,588c0,12.3-9.9,22.2-22.2,22.2c-12.3,0-22.2-9.9-22.2-22.2c0-12.3,9.9-22.2,22.2-22.2
		C637,565.8,647,575.8,647,588"/>
	<path class="st2" d="M212.3,661.9c0,12.3-9.9,22.2-22.2,22.2c-12.3,0-22.2-9.9-22.2-22.2c0-12.3,9.9-22.2,22.2-22.2
		C202.4,639.7,212.3,649.6,212.3,661.9"/>
	<path class="st2" d="M135,207.2c0,9.1-7.4,16.4-16.4,16.4s-16.4-7.4-16.4-16.4s7.4-16.4,16.4-16.4S135,198.1,135,207.2"/>
	<path class="st2" d="M454.7,713.7c0,9.1-7.4,16.4-16.4,16.4s-16.4-7.4-16.4-16.4s7.4-16.4,16.4-16.4S454.7,704.6,454.7,713.7"/>
	<path class="st2" d="M524.6,16.4c0,9.1-7.4,16.4-16.4,16.4s-16.4-7.4-16.4-16.4S499.1,0,508.1,0S524.6,7.4,524.6,16.4"/>
	<path class="st2" d="M345.9,978c0,9.1-7.4,16.4-16.4,16.4s-16.4-7.4-16.4-16.4c0-9.1,7.4-16.4,16.4-16.4S345.9,968.9,345.9,978"/>
	<path class="st2" d="M778,398.6c0,8.1-6.6,14.6-14.6,14.6c-8.1,0-14.6-6.6-14.6-14.6s6.5-14.6,14.6-14.6
		C771.5,384,778,390.5,778,398.6"/>
	<path class="st2" d="M752.4,829.9c0,9.1-7.3,16.4-16.4,16.4c-9.1,0-16.4-7.4-16.4-16.4s7.4-16.4,16.4-16.4
		C745.1,813.5,752.4,820.9,752.4,829.9"/>
	<path class="st2" d="M338.7,603.1c0,5.1-4.1,9.2-9.2,9.2s-9.2-4.1-9.2-9.2c0-5.1,4.1-9.2,9.2-9.2S338.7,598,338.7,603.1"/>
	<path class="st2" d="M144.2,554.5c0,5.1-4.1,9.2-9.2,9.2s-9.2-4.1-9.2-9.2c0-5.1,4.1-9.2,9.2-9.2S144.2,549.4,144.2,554.5"/>
	<path class="st2" d="M18.8,473.2c0,5.1-4.1,9.2-9.2,9.2c-5.1,0-9.2-4.1-9.2-9.2c0-5.1,4.1-9.2,9.2-9.2
		C14.7,464,18.8,468.1,18.8,473.2"/>
	<path class="st2" d="M292.9,69.4c0,5.1-4.1,9.2-9.2,9.2s-9.2-4.1-9.2-9.2c0-5.1,4.1-9.2,9.2-9.2S292.9,64.3,292.9,69.4"/>
	<path class="st2" d="M87.8,770.4c0,5.1-4.1,9.2-9.2,9.2c-5.1,0-9.2-4.1-9.2-9.2c0-5.1,4.1-9.2,9.2-9.2
		C83.7,761.2,87.8,765.3,87.8,770.4"/>
	<path class="st2" d="M463.9,346.7c0,5.1-4.1,9.2-9.2,9.2s-9.2-4.1-9.2-9.2c0-5.1,4.1-9.2,9.2-9.2S463.9,341.6,463.9,346.7"/>
	<path class="st2" d="M491.8,563.7c0,5.1-4.1,9.2-9.2,9.2c-5.1,0-9.2-4.1-9.2-9.2c0-5.1,4.1-9.2,9.2-9.2
		C487.7,554.5,491.8,558.6,491.8,563.7"/>
	<path class="st2" d="M621.9,147c0,5.1-4.1,9.2-9.2,9.2c-5.1,0-9.2-4.1-9.2-9.2c0-5.1,4.1-9.2,9.2-9.2
		C617.8,137.8,621.9,141.9,621.9,147"/>
	<path class="st2" d="M274.5,858.1c0,5.1-4.1,9.2-9.2,9.2c-5.1,0-9.2-4.1-9.2-9.2c0-5.1,4.1-9.2,9.2-9.2
		C270.4,848.9,274.5,853,274.5,858.1"/>
	<path class="st2" d="M500.9,880.8c0,5.1-4.1,9.2-9.2,9.2s-9.2-4.1-9.2-9.2c0-5.1,4.1-9.2,9.2-9.2S500.9,875.8,500.9,880.8"/>
	<path class="st2" d="M641.3,978c0,5.1-4.1,9.2-9.2,9.2s-9.2-4.1-9.2-9.2s4.1-9.2,9.2-9.2S641.3,972.9,641.3,978"/>
	<path class="st2" d="M625.5,755.3c0,7.1-5.7,12.8-12.8,12.8c-7.1,0-12.8-5.7-12.8-12.8c0-7.1,5.7-12.8,12.8-12.8
		C619.8,742.6,625.5,748.3,625.5,755.3"/>
	<path class="st2" d="M787.2,593.9c0,5.1-4.1,9.2-9.2,9.2c-5.1,0-9.2-4.1-9.2-9.2c0-5.1,4.1-9.2,9.2-9.2
		C783.1,584.7,787.2,588.8,787.2,593.9"/>
	<path class="st2" d="M612.7,391.2c0,5.1-4.1,9.2-9.2,9.2s-9.2-4.1-9.2-9.2c0-5.1,4.1-9.2,9.2-9.2S612.7,386.2,612.7,391.2"/>
	<path class="st2" d="M812.2,114.1c0,5.1-4.1,9.2-9.2,9.2c-5.1,0-9.2-4.1-9.2-9.2c0-5.1,4.1-9.2,9.2-9.2
		C808.1,104.9,812.2,109,812.2,114.1"/>
	<path class="st2" d="M876.5,740.1c0,5.1-4.1,9.2-9.2,9.2c-5.1,0-9.2-4.1-9.2-9.2s4.1-9.2,9.2-9.2
		C872.4,730.9,876.5,735.1,876.5,740.1"/>
	<path class="st2" d="M997.6,639.7c0,5.1-4.1,9.2-9.2,9.2s-9.2-4.1-9.2-9.2c0-5.1,4.1-9.2,9.2-9.2S997.6,634.6,997.6,639.7"/>
	<path class="st2" d="M867.3,871.7c0,5.1-4.1,9.2-9.2,9.2c-5.1,0-9.2-4.1-9.2-9.2c0-5.1,4.1-9.2,9.2-9.2
		C863.2,862.5,867.3,866.6,867.3,871.7"/>
	<path class="st2" d="M911.3,482.3c0,5.1-4.1,9.2-9.2,9.2c-5.1,0-9.2-4.1-9.2-9.2c0-5.1,4.1-9.2,9.2-9.2
		C907.2,473.2,911.3,477.3,911.3,482.3"/>
	<path class="st2" d="M997.6,383.9c0,5.1-4.1,9.2-9.2,9.2s-9.2-4.1-9.2-9.2c0-5.1,4.1-9.2,9.2-9.2S997.6,378.9,997.6,383.9"/>
	<path class="st2" d="M902.1,276.7c0,5.1-4.1,9.2-9.2,9.2c-5.1,0-9.2-4.1-9.2-9.2c0-5.1,4.1-9.2,9.2-9.2
		C898,267.5,902.1,271.6,902.1,276.7"/>
	<path class="st2" d="M368.3,434.7l-1.2-1.2l87.3-92.4l1.3,1.2L368.3,434.7"/>
	<path class="st2" d="M10,464.7l-0.8-1.5l175.9-98.3l0.8,1.5L10,464.7"/>
	<path class="st2" d="M181.5,369.3L364,430.9L120.6,210.2L181.5,369.3z M367.4,433.8l-187.1-63.1l-0.1-0.4l-62.4-162.8l1.4-0.9
		l249.1,225.8L367.4,433.8"/>
	<path class="st2" d="M77.8,761.4L8.3,471.3L134,552.9l-16.4-346.6l0.9,0l278.6,5.7l0,1.7L119.4,208l16.5,348.1L10.9,475l68.5,286
		L77.8,761.4"/>
	<path class="st2" d="M323.8,979l-0.4-0.3l-246-208.2l102.9-114.5l1.3,1.1L79.8,770.3L324.1,977l410.2-150.8l0.6,1.6L323.8,979"/>
	<path class="st2" d="M265.9,852.9l-1.1-1.3l167.1-136.4l1.1,1.3L265.9,852.9"/>
	<path class="st2" d="M613.5,756.4l-175.4-41.9l-248.1-51.8l0.3-1.7l248.2,51.8l173.5,41.4l12-166.3l1.7,0.1L613.5,756.4"/>
	<path class="st2" d="M437.4,713.9L372,434.3l1.7-0.4l65.4,279.6L437.4,713.9"/>
	<path class="st2" d="M778.9,594.8L624,585.5l-0.1-0.7L602.7,388l1.7-0.2l21.2,196.1l151.6,9.1L768,400.5l1.7-0.1L778.9,594.8"/>
	<path class="st2" d="M329.2,979.2l-64.6-111.5l1.5-0.9l63.8,110l161.9-97l0.4,0.3l140.4,88l-0.9,1.5l-139.9-87.7L329.2,979.2"/>
	<path class="st2" d="M491.8,881.7l-0.1,0l-227.5-25.6l0.2-1.7L491.7,880l243.1-50.7l-110-238l1.6-0.7l110.9,240l-1.1,0.2
		L491.8,881.7"/>
	<path class="st2" d="M370,433.4l255.3,156.4l137.3-191.6L802,115.1l-188.5,32.6l-9.2,240.9L370,433.4z M181.8,373.1l9,286.4
		l94-124.7L181.8,373.1z M285.9,536.2l-93.2,123.6l135.6-57.1L285.9,536.2z M189.3,664.3l-9.4-297.5L286,533.2l75.3-99.9l0.3-0.1
		l241.1-46.1l9.2-240.9l192.2-33.2l-39.9,285.8l-0.1,0.2l-138.4,193l-0.7-0.4L372.3,436.8l112,123.9l-154.5,39.9l-0.4-1.7
		l151.8-39.2L367.3,433.9l-5.1,1L287,534.8l43.8,68.7l-0.9,0.4l-139.2,58.7L189.3,664.3"/>
	<path class="st2" d="M632.5,978.9H337.6v-1.7h294.1l107.9-147.7l1.4,1L632.5,978.9"/>
	<path class="st2" d="M859.5,869.2l-1.7-0.1l8.5-127.2l-129.9,88.8l-1-1.4l132.8-90.8L859.5,869.2"/>
	<path class="st2" d="M866.8,740.9L624.3,585.4l0.9-1.4l239.4,153.4l-88.4-144.8l1.9,0.4l212.9,45.8l-0.4,1.7l-210.9-45.3L868,739.7
		L866.8,740.9"/>
	<path class="st2" d="M491.8,882l-0.6-0.4L191.9,664.3l75,195.5l-1.9-0.9l-187.4-88l0.2-0.7l56.6-216.7l0.8,0.2l194.6,48.6l-0.4,1.7
		l-193.7-48.4l-56,214.4l184.2,86.5l-75.5-196.9l303.4,220.2L613,761.1L481.9,564.2l1.4-1l131.9,198.1L491.8,882"/>
	<path class="st2" d="M397.9,207.6l-1.5-0.9l110-189L283.9,70.2l-0.4-1.7l226.4-53.4L397.9,207.6"/>
	<path class="st2" d="M510.6,18.1l102.8,128.4l0,0.1l44.1,94.6l143.8-126.8L510.6,18.1z M603.6,392.1L454,347.4l-0.1-0.4L405,206.1
		l250.8,35.4L612,147.4L505.7,14.7l299.1,99.1L658.3,242.8l0.4,0.9l-251.2-35.5L455.3,346l148.8,44.5L603.6,392.1"/>
	<path class="st2" d="M407.7,211.3l-0.5-1.6l202.6-63.5l0.5,1.6L407.7,211.3"/>
	<path class="st2" d="M624.8,591.4L454.1,347.4L119.5,211.3l0.7-1.6L455.2,346l0.1,0.2l170.8,244.3L624.8,591.4"/>
	<path class="st2" d="M373.7,433.1l-1.7-0.2L405.4,207l1.7,0.3L373.7,433.1"/>
	<path class="st2" d="M605.1,390.4l156.6,7.2L657.5,244.5L605.1,390.4z M605.8,392.2l172.3,197.5l122.6-107.3l-137.5-83L605.8,392.2
		z M777.9,592.2l-0.6-0.7L604,392.7l-115,168l-1.4-1l115.2-168.4l-0.9-1l1.4,0.1l53.8-149.6l106.5,156.5l128.8-127l1.2,1.2
		L764.8,398.4l138.8,83.8L777.9,592.2"/>
	<path class="st2" d="M858.8,872.1l-1.5-0.8l128.2-228.2l-117.1,93.5l-1.1-1.3L987.9,639l1.3,1.1L858.8,872.1"/>
	<path class="st2" d="M763.4,399.4l-0.1-1.7l225-14.6l0.1,1.7L763.4,399.4"/>
	<path class="st2" d="M614.1,754.1l120.4,68.7l42.1-226.4L614.1,754.1z M632.2,978.9l-0.3-0.1L264.3,858.6l0.2-0.8l101.9-423.2
		L136.1,554.9l57.2,106.6l-1.5,0.8l-58.1-108.1l235.1-122.8L266.3,857.5L632,977.1l223.8-105.3l-122.2-44.2l0.6-3l-122.9-70.2
		l0.8-0.8l167.2-162.2l-43.2,232.3l4.5,2.6l-0.9,1.5l-4-2.3l-0.2,1l124.7,45.1L632.2,978.9"/>
	<path class="st2" d="M438.7,717l-0.9-1.4l184.8-123.6l-293,8.7l-0.1-1.7l298.9-8.9L438.7,717"/>
	<path class="st2" d="M902.9,482.1l84.6,154.2V384.3l-93.7-105.2L902.9,482.1z M987.7,640.1l-86.4-157.5l0-0.2l-9.2-204.9l-234.6-34
		L455.1,347.4l-0.8-1.5l202.9-104.2l234.2,33.9l-89-161.1l1.3-1l99,96.4l-1.2,1.2l-94.9-92.3l86.8,157.2l0.3,0l0,0.4l95.5,107.2
		v256.1L987.7,640.1"/>
	<path class="st2" d="M633.2,981l-1.8-2.5l-190-264.3l1.4-1L631,975l-19.1-220.6l1.7-0.1L633.2,981"/>
	<path class="st2" d="M370.2,167.9L187.5,364.1L405,207L370.2,167.9z M188,663L8.6,473.3l109.2-266.7l0.2-0.1L283.8,68.2l0.6,0.6
		l85.9,96.6L504.2,21.6l1.3,1.2l-134,143.9l36.2,40.6l-0.8,0.6L181.4,370.7l-1.1-1.3l188.8-202.7l-85.5-96.1L119.3,207.7L10.6,473
		l178.7,188.9L188,663"/>
	<path class="st2" d="M902.7,482.9l-1.3-1.1l86.3-98.4l1.3,1.1L902.7,482.9"/>
	<path class="st2" d="M989.8,641.6l-1.9-1.2L602.1,388.6l0.9-1.4l384,250.5l-94.9-360.5L507.7,17.1l0.7-1.5l170.9,37.1l-0.4,1.7
		L512.3,18.2l381.3,258l0.1,0.3L989.8,641.6"/>
	<path class="st1" d="M906.2,210.5c0,2.3-1.8,4.1-4.1,4.1c-2.3,0-4.1-1.8-4.1-4.1c0-2.3,1.9-4.1,4.1-4.1
		C904.4,206.3,906.2,208.2,906.2,210.5"/>
	<path class="st2" d="M898.8,276.8l-1.7-0.1l4.1-70.4l1.7,0.1L898.8,276.8"/>
	<g>
		<defs>
			<rect id="SVGID_1_" x="502" y="1007" width="12" height="11.4"/>
		</defs>
		<clipPath id="SVGID_2_">
			<use xlink:href="#SVGID_1_"  style="overflow:visible;"/>
		</clipPath>
		<g class="st3">
			<path class="st2" d="M513.5,1013.1c0,3-2.4,5.4-5.4,5.4s-5.4-2.4-5.4-5.4c0-3,2.4-5.4,5.4-5.4S513.5,1010.2,513.5,1013.1"/>
		</g>
	</g>
	<path class="st2" d="M180.4,886.2c0,3-2.4,5.4-5.4,5.4s-5.4-2.4-5.4-5.4c0-3,2.4-5.4,5.4-5.4S180.4,883.3,180.4,886.2"/>
	<path class="st2" d="M745.6,956.2c0,3-2.4,5.4-5.4,5.4c-3,0-5.4-2.4-5.4-5.4c0-3,2.4-5.4,5.4-5.4
		C743.2,950.8,745.6,953.2,745.6,956.2"/>
	<path class="st2" d="M175.8,888.5L77.9,770.9l1.3-1.1l95,114.2l11.6-217.9l1.7,0.1L175.8,888.5"/>
	<path class="st2" d="M508.2,1014l-0.2,0l-178.6-35.1l0.3-1.7l178.4,35.1l123.8-35.1l107.5-21.7L735.1,830l1.7-0.1l4.3,127
		l-108.9,21.9L508.2,1014"/>
	<path class="st2" d="M507.3,1013.2l-14-130.8l1.7-0.2l14,130.8L507.3,1013.2"/>
	<path class="st2" d="M438.2,718.7l-67.8,163.3l120.2-2.1L438.2,718.7z M336.9,884.3l-6.2,88.5l37-89L336.9,884.3z M330.3,978.3
		l-1.6-0.4l6.5-93.6L175,887.1l0-1.7l160.3-2.7l31.5-449.7l1.7,0.1l-31.4,449.6l31.4-0.5l69.9-168.3l54.5,167.9l-123.3,2.1
		L330.3,978.3"/>
	<path class="st2" d="M740.7,956.9l-1-1.4l117.1-84L622.2,585.3l1.3-1.1l235.8,287.6l-0.7,0.5L740.7,956.9"/>
	<path class="st2" d="M944.9,761.2c0,3-2.4,5.4-5.4,5.4c-3,0-5.4-2.4-5.4-5.4c0-3,2.4-5.4,5.4-5.4
		C942.5,755.8,944.9,758.2,944.9,761.2"/>
	<g>
		<defs>
			<rect id="SVGID_3_" x="1001" y="492" width="11" height="12"/>
		</defs>
		<clipPath id="SVGID_4_">
			<use xlink:href="#SVGID_3_"  style="overflow:visible;"/>
		</clipPath>
		<g class="st4">
			<path class="st2" d="M1012.1,497.6c0,3-2.4,5.4-5.4,5.4s-5.4-2.4-5.4-5.4c0-3,2.4-5.4,5.4-5.4S1012.1,494.7,1012.1,497.6"/>
		</g>
	</g>
	<path class="st2" d="M939.8,762.8L777.4,594.5l1.2-1.2l160.6,166.4l48.4-120.2l17.9-141.9l1.7,0.2l-18,142.1l0,0.1L939.8,762.8"/>
	<g>
		<defs>
			<rect id="SVGID_5_" x="866" y="210" width="146" height="531"/>
		</defs>
		<clipPath id="SVGID_6_">
			<use xlink:href="#SVGID_5_"  style="overflow:visible;"/>
		</clipPath>
		<g class="st5">
			<path class="st2" d="M902.8,483.3l-33.6,248.5l83.8-241.5L902.8,483.3z M868.1,740.4l-1.7-0.4l34.9-258.7l52.3,7.3L990,384
				l-87.8-173.2l1.5-0.8l88.1,173.8l-0.1,0.3l-36.3,104.6l56.8,7.9l-0.2,1.7l-57.1-7.9L868.1,740.4"/>
		</g>
	</g>
	<path class="st1" d="M858.8,869.6l-1.4-1l81.4-107.9l1.4,1L858.8,869.6"/>
	<path class="st1" d="M1005.5,497.7L990,384.1l1.7-0.2l15.5,113.7L1005.5,497.7"/>
	<path class="st1" d="M332.9,976.4L174.6,887l0.8-1.5l158.3,89.4L332.9,976.4"/>
	<path class="st1" d="M683.1,53.6c0,2.3-1.8,4.1-4.1,4.1c-2.3,0-4.1-1.8-4.1-4.1c0-2.3,1.9-4.1,4.1-4.1
		C681.3,49.4,683.1,51.3,683.1,53.6"/>
	<path class="st2" d="M184.8,375l-1.6-0.5L283.2,68.2l373.4,173.1l21.7-189.1l125.1,61.1l-0.8,1.5l-123-60L658,243.9l-1.1-0.5
		L284.2,70.6L184.8,375"/>
</g>
</svg>
