<?xml version="1.0" encoding="utf-8"?>
<!-- Generator: Adobe Illustrator 25.0.0, SVG Export Plug-In . SVG Version: 6.00 Build 0)  -->
<svg version="1.1" id="Capa_1" xmlns="http://www.w3.org/2000/svg" xmlns:xlink="http://www.w3.org/1999/xlink" x="0px" y="0px"
	 viewBox="0 0 512 512" style="enable-background:new 0 0 512 512;" xml:space="preserve">
<style type="text/css">
	.st0{fill:#B57CB1;}
</style>
<g id="XMLID_1127_">
	<g id="XMLID_1324_">
		<path id="XMLID_1353_" class="st0" d="M464,212.4c-28.9-30.9-67.5-50.3-109.2-55.2C344.4,68.8,269.1,0,178,0
			c-31.3,0-62.1,8.2-89,23.8c-4.8,2.8-6.4,8.9-3.6,13.7c2.8,4.8,8.9,6.4,13.7,3.6C122.9,27.3,150.2,20,178,20
			c87.1,0,158,70.9,158,158s-70.9,158-158,158S20,265.1,20,178c0-27,6.9-53.7,20.1-77.1c2.7-4.8,1-10.9-3.8-13.6
			c-4.8-2.7-10.9-1-13.6,3.8C7.8,117.5,0,147.6,0,178c0,91.1,68.8,166.4,157.2,176.8c4.9,41.7,24.3,80.3,55.2,109.2
			c33.1,31,76.3,48,121.6,48c98.1,0,178-79.9,178-178C512,288.7,495,245.5,464,212.4z M262.5,334.6c0.9,1,1.9,1.9,3,2.6l23.5,17
			l-9,27.6c-2.7,8.4,0.1,17.1,7.2,22.2c3.5,2.6,7.6,3.9,11.7,3.9c4.1,0,8.1-1.3,11.7-3.9l23.5-17.1l23.4,17c7.1,5.2,16.3,5.2,23.4,0
			c7.1-5.2,9.9-13.9,7.2-22.3l-9-27.4l23.5-17c7.1-5.2,9.9-13.9,7.2-22.2c-2.7-8.3-10.1-13.7-18.9-13.7h-29.1l-8.9-27.6
			c-2.5-7.7-9-12.9-16.9-13.6c5.2-9.9,9.4-20.3,12.6-31.1c51.8,7.1,91.5,51.9,91.5,105c0,58.4-47.6,106-106,106
			c-53.2,0-97.9-39.6-105-91.5C240.7,345,251.9,340.4,262.5,334.6L262.5,334.6z M283.5,321.3h30c4.3,0,8.2-2.8,9.5-6.9l11-34.1
			l11.1,34.1c1.3,4.1,5.2,6.9,9.5,6.9h36l-29.1,21.1c-3.5,2.6-5,7.1-3.6,11.2l11.2,34l-29-21c-3.5-2.6-8.3-2.5-11.8,0l-29.1,21.2
			l11.1-34.2c1.3-4.1-0.1-8.7-3.7-11.2l-26.2-18.9C281.5,322.7,282.5,322,283.5,321.3z M334,492c-79,0-145.7-58.9-156.5-136
			c0.2,0,0.3,0,0.5,0c10.7,0,21.2-1,31.5-2.8C218.8,413.9,271.4,460,334,460c69.5,0,126-56.5,126-126c0-62.5-46.1-115.2-106.8-124.5
			c1.8-10.2,2.8-20.7,2.8-31.5c0-0.2,0-0.3,0-0.5C433.1,188.3,492,255,492,334C492,421.1,421.1,492,334,492L334,492z"/>
		<path id="XMLID_1361_" class="st0" d="M178,304c69.5,0,126-56.5,126-126S247.5,52,178,52S52,108.5,52,178S108.5,304,178,304z
			 M178,72c58.4,0,106,47.6,106,106s-47.6,106-106,106S72,236.4,72,178S119.6,72,178,72z"/>
		<path id="XMLID_1387_" class="st0" d="M109.5,181.3l23.5,17l-9,27.6c-2.7,8.4,0.1,17.1,7.2,22.2c3.5,2.6,7.6,3.9,11.7,3.9
			c4.1,0,8.1-1.3,11.7-3.9l23.5-17.1l23.4,17c7.1,5.2,16.3,5.2,23.4,0c7.1-5.2,9.9-13.9,7.2-22.3l-9-27.4l23.5-17
			c7.1-5.2,9.9-13.9,7.2-22.2s-10.1-13.7-18.9-13.7h-29.1l-8.9-27.6c-2.7-8.4-10.1-13.7-18.9-13.7c0,0,0,0,0,0
			c-8.8,0-16.2,5.4-18.9,13.8l-8.8,27.5h-29c-8.8,0-16.2,5.4-18.9,13.8C99.5,167.4,102.4,176.1,109.5,181.3L109.5,181.3z
			 M157.4,165.3c4.3,0,8.2-2.8,9.5-6.9l11-34.1l11.1,34.1c1.3,4.1,5.2,6.9,9.5,6.9h36l-29.1,21.1c-3.5,2.6-5,7.1-3.6,11.2l11.2,34
			l-28.9-21c-3.5-2.6-8.3-2.5-11.8,0l-29.1,21.2l11.1-34.2c1.3-4.1-0.1-8.7-3.7-11.2l-29.2-21H157.4z"/>
		<path id="XMLID_1390_" class="st0" d="M58.4,70c2.6,0,5.2-1.1,7.1-2.9c1.9-1.9,2.9-4.4,2.9-7.1s-1.1-5.2-2.9-7.1S61,50,58.4,50
			s-5.2,1.1-7.1,2.9c-1.9,1.9-2.9,4.4-2.9,7.1s1.1,5.2,2.9,7.1S55.8,70,58.4,70z"/>
	</g>
</g>
</svg>
