<?xml version="1.0" encoding="utf-8"?>
<!-- Generator: Adobe Illustrator 25.0.0, SVG Export Plug-In . SVG Version: 6.00 Build 0)  -->
<svg version="1.1" id="Capa_1" xmlns="http://www.w3.org/2000/svg" xmlns:xlink="http://www.w3.org/1999/xlink" x="0px" y="0px"
	 viewBox="0 0 512 512" style="enable-background:new 0 0 512 512;" xml:space="preserve">
<style type="text/css">
	.st0{fill:#B57CB1;}
</style>
<g>
	<path class="st0" d="M176.9,400.8c14.7-3.7,28.9-9.4,42.1-17c5-2.9,9.8-6.1,14.5-9.4C199.3,338,180,290,180,240
		c0-55.9,24.1-109.3,66-146.6l10-8.9l10,8.9c23.3,20.7,41.1,46.4,52.3,74.8c24.1,5.4,47.4,13.9,69.4,25.3
		c-5.4-29.5-16-57.9-31.4-83.8c-22.5-38-54.6-69.7-92.9-91.7c-4.6-2.7-10.3-2.7-15,0c-38.3,22.1-70.5,53.9-93,91.9
		c-23.2,39.2-35.5,84.2-35.5,130s12.3,90.8,35.5,130C161.9,380.8,169,391.1,176.9,400.8L176.9,400.8z"/>
	<path class="st0" d="M359,365.7c6.2-11,11.5-22.4,16-34.1c-10.5-10.9-22.6-20.3-35.9-28c-5-2.9-10.1-5.5-15.3-7.8
		c-14.3,47.9-46.3,88.9-89.8,113.9c-48.4,27.9-106.7,33.8-160,16.1l-12.7-4.2l2.7-13.1c6.3-30.8,19.9-59.2,39-83.2
		c-7.3-23.5-11.6-47.9-12.7-72.7c-23,19.5-42.4,42.9-57.2,69.2C11.4,360.4-0.1,404.2,0,448.4c0,5.3,2.9,10.3,7.5,13
		c38.2,22.1,81.7,34.1,125.9,34.6c45.5,0.5,90.5-11.2,130.1-34l1-0.6C304,438.4,336.7,405.3,359,365.7L359,365.7z"/>
	<path class="st0" d="M478.9,321.4c-22.4-39.7-55.2-72.8-94.9-95.7c-39.7-22.9-84.8-34.8-130.4-34.3c-12.5,0.1-24.9,1.2-37.2,3.1
		c-4.2,14.7-6.4,30-6.4,45.5c0,5.6,0.3,11.2,0.9,16.7c48.5-11.5,99.8-4.2,143.2,20.9c48.4,27.9,82.6,75.5,93.9,130.5l2.7,13.1
		l-12.7,4.2c-29.7,9.9-61,12.4-91.2,7.9c-16.6,18.1-35.6,34.1-56.4,47.5c28.3,10.1,58.2,15.1,88.3,14.8
		c44.1-0.5,87.6-12.5,125.9-34.6c4.6-2.7,7.5-7.6,7.5-13C512.1,403.7,500.6,359.9,478.9,321.4L478.9,321.4z"/>
</g>
</svg>
