<svg id="Layer_1" data-name="Layer 1" xmlns="http://www.w3.org/2000/svg" xmlns:xlink="http://www.w3.org/1999/xlink" viewBox="0 0 222.96 227.5"><defs><style>.cls-1,.cls-2,.cls-3,.cls-4,.cls-5{fill-rule:evenodd;}.cls-2{fill:url(#GradientFill_1);}.cls-3{fill:#fdfdfd;}.cls-4{fill:none;stroke:#fdfdfd;stroke-miterlimit:2.61;stroke-width:0.06px;}.cls-5{fill:#838587;}</style><linearGradient id="GradientFill_1" x1="155.78" y1="92.5" x2="62.4" y2="142.12" gradientUnits="userSpaceOnUse"><stop offset="0" stop-color="#19b2c0"/><stop offset="0.44" stop-color="#757bae"/><stop offset="1" stop-color="#bf75ae"/></linearGradient></defs><path class="cls-1" d="M135.12,39.41c-6.45.6-6.55.33-10.62,1.31,14.47,2.17,30,3.76,45.57,12.56,55.51,31.4,38.25,135-30.58,135-32.55,0-57.79-.32-57.79-.32C20.11,190.09-4.16,98.61,39.76,58.08A58.53,58.53,0,0,1,48,52.93c-5.84-.27-17.79,6.93-17.79,6.93s5.54-7.59,5.16-12.62-.77-10,1-13.61c-9.15,11.58-13.23,28.05-15.2,44.71-4-3.32-14.53,9.41-14.39,30.43S15.64,134,19,136.71c2.3,1.92,4.07,8.89,5.31,16.67h.26a45.06,45.06,0,0,1,1.68,10.16c0,2.21-.05,4.69-.13,7.17l-.39.12c-.47,4.45-1.94,6.79-2.6,11.5,5.44,2,13.17,4.12,19.07,2.94l7.6-1.52s8.81,6.08,5.16,15.8c-2.47,6.61-12.93,6.63-19.39,6a7.19,7.19,0,0,1,.59.91c1.66,3.32,36.51,22.13,75.24,21,33.25-.95,61.4-13.92,73.61-21.78-6.46.46-15.38-.07-17.64-6.11-3.65-9.72,5.16-15.8,5.16-15.8l7.6,1.52c5.25,1.05,11.95-.51,17.2-2.28-.15-2.55-.42-7.39-.58-12.28-.08-2.48-.14-5-.14-7.17a44.58,44.58,0,0,1,1.69-10.16,175.42,175.42,0,0,1,5.5-16.95c3.32-2.22,13.28-13,10.24-36s-14.94-22.13-14.94-22.13c-.63-16.23-9.24-33.09-20.35-46.12l-.1-.17c-.42-.47-.84-.94-1.27-1.4h0A111.71,111.71,0,0,0,145,6.39c-1.19,6.49,1.71,9.19-1.59,18.07-3.9,10.51-12,9.25,1.43,6.73.79-.15-3.23,7.61-9.67,8.22ZM52.78,184h.34c4.34,0,7.86,5.21,7.86,11.65s-3.52,11.64-7.86,11.64h-.34c3.41-.26,6.13-5.37,6.13-11.63S56.19,184.26,52.78,184Zm117.39,0c-3.4.26-6.12,5.37-6.12,11.64s2.72,11.37,6.12,11.63h-.33c-4.35,0-7.87-5.21-7.87-11.64S165.49,184,169.84,184Z"/><path class="cls-1" d="M33.75,204.53c-1.27-.2-2.05-.37-2.05-.37s-20.61-2.83-26.8-12.11-7.73-22.93,2.58-31.43c7.31-6,13.07-6.62,15.79-6.45A44.58,44.58,0,0,1,25,164.33c0,2.21-.06,4.69-.14,7.16-1,.32-6,2-6.26,4.59-.26,2.83-.52,5.92,3.6,7.73.59.25,1.27.54,2,.84,4.6,1.82,12,4.13,17.56,3l6.44-1.29s7.47,5.16,4.38,13.4C50.13,206.3,38.51,205.25,33.75,204.53Z"/><path class="cls-1" d="M76.75,52.68s23.11-3.48,38.93-2.9,34.48,1,53,13.21c41,27,30.34,117.6-32,117.6-28.93,0-51.37-.29-51.37-.29C31,182.21,8.73,101.2,48.08,64.88c0,0,10.55-8.42,28.67-12.2ZM138,183.86c65.4,0,76.55-95.16,33.54-123.48-19.45-12.8-39-13.26-55.64-13.87s-40.89,3.05-40.89,3.05C56,53.52,45,62.36,45,62.36,3.64,100.5,27,185.56,84.1,183.55,84.1,183.55,107.66,183.86,138,183.86Z"/><path class="cls-2" d="M78.63,55.59s22-3.32,37.1-2.77,32.85,1,50.5,12.59c39,25.7,28.91,112.06-30.44,112.06-27.57,0-49-.28-49-.28-51.79,1.82-73-75.38-35.52-110C51.31,67.21,61.36,59.18,78.63,55.59Z"/><path class="cls-3" d="M91.52,83.7A1.55,1.55,0,1,1,90,85.24,1.54,1.54,0,0,1,91.52,83.7Z"/><path class="cls-3" d="M107.23,67.47a2.06,2.06,0,1,1-2.06,2.06A2.06,2.06,0,0,1,107.23,67.47Z"/><path class="cls-3" d="M118.31,111.46a1.1,1.1,0,1,1-1.09,1.1A1.09,1.09,0,0,1,118.31,111.46Z"/><path class="cls-3" d="M86.24,126.86a2,2,0,1,1-2,2A2,2,0,0,1,86.24,126.86Z"/><path class="cls-3" d="M80.82,102.74a.67.67,0,1,1-.67.67A.67.67,0,0,1,80.82,102.74Z"/><path class="cls-3" d="M122.66,89.73a.67.67,0,1,1-.67.67A.67.67,0,0,1,122.66,89.73Z"/><path class="cls-3" d="M116,143.29a1.88,1.88,0,1,1-1.88,1.88A1.89,1.89,0,0,1,116,143.29Z"/><path class="cls-3" d="M96.11,148.68a.94.94,0,1,1-.94.94A.94.94,0,0,1,96.11,148.68Z"/><path class="cls-3" d="M116.7,164.69a.79.79,0,1,1-.79.79A.79.79,0,0,1,116.7,164.69Z"/><path class="cls-3" d="M176.54,135.35a.79.79,0,1,1-.78.78A.78.78,0,0,1,176.54,135.35Z"/><path class="cls-3" d="M177.44,103.26a1.94,1.94,0,1,1-1.94,1.93A1.93,1.93,0,0,1,177.44,103.26Z"/><path class="cls-3" d="M46.94,132.52A1.94,1.94,0,1,1,45,134.46,1.94,1.94,0,0,1,46.94,132.52Z"/><path class="cls-3" d="M39,111.39a1,1,0,1,1,0,1.94,1,1,0,0,1,0-1.94Z"/><path class="cls-3" d="M48.52,103.41a1.77,1.77,0,1,1-1.78,1.77A1.77,1.77,0,0,1,48.52,103.41Z"/><path class="cls-3" d="M66.54,166.19c-6.29-25.71-10.1-69.2-12.05-97.9,0-.46-.07-.92-.1-1.37-.54.38-.81.6-.81.6-.28.26-.55.51-.81.77-.88.84-1.71,1.71-2.52,2.6,1.94,27.62,5.5,67.31,11.21,92.48A44.1,44.1,0,0,0,66.54,166.19Z"/><path class="cls-3" d="M59.06,68.29c2,29.46,6,74.5,12.56,99.9a43.37,43.37,0,0,0,9.68,1.92c-6.9-25-11-71.6-13.07-101.82-.2-2.92-.38-5.69-.54-8.27a67.31,67.31,0,0,0-8.91,4.15C58.87,65.51,59,66.88,59.06,68.29Z"/><path class="cls-3" d="M128.38,68.29c.43,30.37.15,76.9-4.66,102.19h8.74a49,49,0,0,0,18.14-3.31c4.26-25.88,4.49-69.8,4.08-98.89q0-3.18-.1-6.11a73.31,73.31,0,0,0-26.45-7.27C128.22,58.83,128.31,63.35,128.38,68.29Z"/><path class="cls-3" d="M160.86,68.29c.4,27.87.2,69.37-3.56,95.55a45,45,0,0,0,8.59-6.8c2.77-24.75,3-59.24,2.76-84.54a42,42,0,0,0-4.44-4.21,38.4,38.4,0,0,0-3.32-2.45l-.06,0Z"/><path class="cls-4" d="M39.76,58.08S80.42,32.28,133.83,42"/><path class="cls-5" d="M39.76,58.08S76.17,35,125.32,40.72c3.18-.65,4.21-.37,10.33-.94s11-9.47,10.22-9.33c-13.46,2.53-6.41,4.52-2.51-6,3.15-8.47.93-12.12,1.71-18-11.7-5.12-24.7-7-37.42-6.34-29.31,1.5-57,13.66-73.21,36.15-.33,2.84.63,6.83,1,11s-5.16,12.62-5.16,12.62,12-7.2,17.79-6.93A58.53,58.53,0,0,0,39.76,58.08Z"/><path class="cls-1" d="M189.21,204.53c1.27-.2,2-.37,2-.37s20.61-2.83,26.8-12.11,7.73-22.93-2.58-31.43c-7.31-6-13.07-6.62-15.8-6.45A45.06,45.06,0,0,0,198,164.33c0,2.21.05,4.69.14,7.16,1,.32,6,2,6.26,4.59.26,2.83.52,5.92-3.61,7.73-.58.25-1.26.54-2,.84-4.6,1.82-12,4.13-17.56,3l-6.44-1.29s-7.47,5.16-4.38,13.4C172.83,206.3,184.45,205.25,189.21,204.53Z"/></svg>