<svg id="Layer_1" data-name="Layer 1" xmlns="http://www.w3.org/2000/svg" xmlns:xlink="http://www.w3.org/1999/xlink" viewBox="0 0 233.17 237.92"><defs><style>.cls-1,.cls-3{fill:#fdfdfd;}.cls-1,.cls-2,.cls-4,.cls-5{fill-rule:evenodd;}.cls-2{fill:url(#GradientFill_1);}.cls-4{fill:none;stroke:#fdfdfd;stroke-miterlimit:2.61;stroke-width:0.06px;}.cls-5{fill:#d1d2d4;}</style><linearGradient id="GradientFill_1" x1="162.91" y1="96.73" x2="65.26" y2="148.63" gradientUnits="userSpaceOnUse"><stop offset="0" stop-color="#19b2c0"/><stop offset="0.44" stop-color="#757bae"/><stop offset="1" stop-color="#bf75ae"/></linearGradient></defs><path class="cls-1" d="M141.3,41.21c-6.74.64-6.84.35-11.1,1.37,15.13,2.27,31.41,3.94,47.66,13.14,58,32.84,40,141.16-32,141.16-34,0-60.44-.35-60.44-.35C21,198.8-4.35,103.13,41.58,60.74a60.67,60.67,0,0,1,8.64-5.39c-6.1-.28-18.6,7.25-18.6,7.25S37.41,54.66,37,49.4s-.8-10.49,1-14.23C28.48,47.28,24.21,64.5,22.15,81.93,18,78.46,7,91.76,7.1,113.75S16.36,140.08,19.83,143c2.41,2,4.26,9.29,5.55,17.43l.27,0A46.8,46.8,0,0,1,27.41,171c0,2.31-.05,4.91-.14,7.49l-.41.14c-.48,4.65-2,7.1-2.71,12,5.68,2.09,13.77,4.31,19.94,3.07L52,192.17s9.22,6.36,5.41,16.53c-2.59,6.91-13.52,6.93-20.28,6.23a6.69,6.69,0,0,1,.61.95c1.74,3.47,38.19,23.15,78.69,22,34.77-1,64.21-14.57,77-22.78-6.75.48-16.09-.08-18.45-6.39-3.82-10.17,5.4-16.53,5.4-16.53l8,1.59c5.49,1.1,12.5-.53,18-2.38-.15-2.67-.43-7.73-.6-12.85-.09-2.58-.15-5.18-.15-7.49a46.88,46.88,0,0,1,1.77-10.62,183.89,183.89,0,0,1,5.76-17.74c3.47-2.31,13.88-13.59,10.7-37.61s-15.62-23.14-15.62-23.14c-.66-17-9.67-34.61-21.29-48.23l-.1-.18-1.33-1.47h0A116.85,116.85,0,0,0,151.58,6.68c-1.23,6.79,1.8,9.61-1.65,18.91-4.08,11-12.58,9.67,1.5,7,.82-.15-3.39,8-10.13,8.6ZM55.2,192.43h.35c4.55,0,8.23,5.45,8.23,12.17s-3.68,12.18-8.23,12.18H55.2c3.57-.27,6.41-5.61,6.41-12.17s-2.84-11.89-6.41-12.16Zm122.77,0c-3.57.27-6.41,5.61-6.41,12.16s2.84,11.9,6.41,12.17h-.36c-4.54,0-8.22-5.45-8.22-12.18s3.68-12.17,8.22-12.17Z"/><path class="cls-1" d="M35.29,213.89c-1.32-.2-2.14-.38-2.14-.38s-21.56-3-28-12.66S-3,176.87,7.82,168c7.65-6.3,13.67-6.92,16.52-6.74a46.8,46.8,0,0,1,1.76,10.62c0,2.31-.06,4.91-.14,7.5-1.06.33-6.31,2.13-6.55,4.79-.27,3-.54,6.2,3.77,8.09.61.26,1.32.56,2.12.88,4.81,1.9,12.58,4.31,18.36,3.16l6.73-1.35s7.82,5.39,4.59,14C52.42,215.74,40.28,214.65,35.29,213.89Z"/><path class="cls-1" d="M80.26,55.1s24.18-3.65,40.72-3S157,53.12,176.4,65.88c42.84,28.2,31.74,123-33.4,123-30.26,0-53.73-.31-53.73-.31-56.84,2-80.14-82.72-39-120.7,0,0,11-8.81,30-12.75Zm64.1,137.18c68.4,0,80-99.52,35.08-129.13-20.34-13.39-40.83-13.87-58.19-14.51s-42.76,3.19-42.76,3.19C58.6,56,47,65.22,47,65.22,3.8,105.1,28.26,194.06,88,192,88,192,112.59,192.28,144.36,192.28Z"/><path class="cls-2" d="M82.23,58.13s23-3.47,38.8-2.89,34.35,1,52.81,13.16C214.66,95.28,204.08,185.59,142,185.59c-28.83,0-51.2-.29-51.2-.29-54.17,1.91-76.36-78.82-37.15-115C53.66,70.28,64.17,61.89,82.23,58.13Z"/><path class="cls-1" d="M95.71,87.53a1.62,1.62,0,1,1-1.62,1.62A1.61,1.61,0,0,1,95.71,87.53Z"/><path class="cls-1" d="M112.14,70.55A2.16,2.16,0,1,1,110,72.71,2.16,2.16,0,0,1,112.14,70.55Z"/><path class="cls-1" d="M123.73,116.57a1.14,1.14,0,1,1-1.14,1.14A1.14,1.14,0,0,1,123.73,116.57Z"/><path class="cls-1" d="M90.19,132.66a2.09,2.09,0,1,1-2.09,2.09A2.09,2.09,0,0,1,90.19,132.66Z"/><path class="cls-1" d="M84.52,107.44a.71.71,0,1,1-.7.7A.71.71,0,0,1,84.52,107.44Z"/><path class="cls-1" d="M128.28,93.83a.71.71,0,1,1-.7.71A.7.7,0,0,1,128.28,93.83Z"/><path class="cls-1" d="M121.36,149.85a2,2,0,1,1-2,2A2,2,0,0,1,121.36,149.85Z"/><path class="cls-1" d="M100.52,155.49a1,1,0,1,1-1,1A1,1,0,0,1,100.52,155.49Z"/><path class="cls-1" d="M122,172.23a.83.83,0,0,1,0,1.65.83.83,0,0,1,0-1.65Z"/><path class="cls-1" d="M184.63,141.54a.83.83,0,0,1,0,1.65.83.83,0,0,1,0-1.65Z"/><circle class="cls-3" cx="185.56" cy="110.01" r="2.03"/><path class="cls-1" d="M49.09,138.59a2,2,0,1,1-2,2A2,2,0,0,1,49.09,138.59Z"/><path class="cls-1" d="M40.8,116.49a1,1,0,1,1-1,1A1,1,0,0,1,40.8,116.49Z"/><path class="cls-1" d="M50.74,108.14A1.86,1.86,0,1,1,48.88,110,1.85,1.85,0,0,1,50.74,108.14Z"/><path class="cls-1" d="M69.59,173.8C63,146.91,59,101.43,57,71.42c0-.49-.06-1-.1-1.44-.56.4-.85.64-.85.64-.29.26-.57.53-.85.8-.91.88-1.79,1.78-2.63,2.71,2,28.89,5.75,70.4,11.73,96.72A45.77,45.77,0,0,0,69.59,173.8Z"/><path class="cls-1" d="M61.76,71.42C63.87,102.23,68,149.33,74.9,175.89a44.94,44.94,0,0,0,10.12,2C77.81,151.76,73.51,103,71.35,71.42c-.21-3.06-.4-6-.56-8.66a70.29,70.29,0,0,0-9.31,4.35C61.57,68.51,61.66,69.94,61.76,71.42Z"/><path class="cls-1" d="M134.26,71.42c.45,31.75.16,80.42-4.87,106.87h9.14a51,51,0,0,0,19-3.47c4.45-27.06,4.69-73,4.26-103.41,0-2.22-.06-4.36-.1-6.39A76.72,76.72,0,0,0,134,57.42C134.09,61.53,134.18,66.25,134.26,71.42Z"/><path class="cls-1" d="M168.23,71.42c.41,29.15.2,72.54-3.73,99.93a47.52,47.52,0,0,0,9-7.12c2.89-25.89,3.18-61.95,2.88-88.41a42.88,42.88,0,0,0-4.64-4.4,39.78,39.78,0,0,0-3.47-2.56l-.07,0C168.2,69.67,168.22,70.53,168.23,71.42Z"/><path class="cls-4" d="M41.58,60.74s42.53-27,98.38-16.83"/><path class="cls-5" d="M41.58,60.74s38.08-24.16,89.48-18.16c3.32-.67,4.4-.38,10.8-1s11.52-9.9,10.69-9.75c-14.07,2.64-6.7,4.72-2.62-6.26,3.29-8.86,1-12.69,1.79-18.83C139.47,1.4,125.89-.55,112.58.13,81.92,1.69,53,14.41,36,37.93c-.34,3,.66,7.14,1,11.47s-5.39,13.2-5.39,13.2,12.5-7.53,18.6-7.25A60.67,60.67,0,0,0,41.58,60.74Z"/><path class="cls-1" d="M197.88,213.89c1.32-.2,2.14-.38,2.14-.38s21.55-3,28-12.66,8.09-24-2.69-32.88c-7.65-6.3-13.67-6.92-16.52-6.74a46.8,46.8,0,0,0-1.76,10.62c0,2.31.05,4.91.14,7.5,1.06.33,6.31,2.13,6.55,4.79.27,3,.54,6.2-3.77,8.09l-2.12.88c-4.81,1.9-12.58,4.31-18.36,3.16l-6.74-1.35s-7.81,5.39-4.58,14C180.75,215.74,192.89,214.65,197.88,213.89Z"/></svg>